<svg xmlns="http://www.w3.org/2000/svg" xmlns:xlink="http://www.w3.org/1999/xlink" width="500" zoomAndPan="magnify" viewBox="0 0 375 374.999991" height="500" preserveAspectRatio="xMidYMid meet" version="1.0"><defs><g/><clipPath id="dc9af78980"><path d="M 0.84375 0.582031 L 58.445312 0.582031 L 58.445312 58.183594 L 0.84375 58.183594 Z M 0.84375 0.582031 " clip-rule="nonzero"/></clipPath><clipPath id="d41c161798"><path d="M 29 56 L 31 56 L 31 58.183594 L 29 58.183594 Z M 29 56 " clip-rule="nonzero"/></clipPath><clipPath id="51878345f5"><rect x="0" width="87" y="0" height="14"/></clipPath><clipPath id="e8f91748a3"><rect x="0" width="180" y="0" height="59"/></clipPath></defs><g transform="matrix(1, 0, 0, 1, 94, 158)"><g clip-path="url(#e8f91748a3)"><g clip-path="url(#dc9af78980)"><path fill="#5e17eb" d="M 38.332031 21.875 L 37.382812 21.875 L 37.382812 5.222656 C 37.382812 4.640625 36.980469 4.167969 36.488281 4.167969 L 23.035156 4.167969 C 22.542969 4.167969 22.140625 4.640625 22.140625 5.222656 L 22.140625 5.589844 C 20.898438 6.015625 19.734375 6.460938 18.550781 7.054688 L 18.550781 5.222656 C 18.554688 2.738281 20.503906 0.582031 23.035156 0.582031 L 36.488281 0.582031 C 39.019531 0.582031 40.972656 2.738281 40.972656 5.222656 L 40.972656 18.289062 L 44.253906 18.289062 L 44.480469 18.625 C 42.378906 19.609375 40.332031 20.703125 38.332031 21.878906 Z M 7.316406 40.703125 L 5.484375 40.703125 C 3.003906 40.703125 0.84375 38.753906 0.84375 36.222656 L 0.84375 22.769531 C 0.84375 20.238281 3.003906 18.285156 5.484375 18.285156 L 18.550781 18.285156 L 18.550781 15.003906 C 19.738281 14.191406 20.8125 13.476562 22.140625 12.871094 L 22.140625 21.875 L 5.488281 21.875 C 4.90625 21.875 4.433594 22.277344 4.433594 22.769531 L 4.433594 36.222656 C 4.433594 36.714844 4.90625 37.117188 5.488281 37.117188 L 5.855469 37.117188 C 6.277344 38.34375 6.738281 39.542969 7.320312 40.703125 Z M 40.96875 51.941406 L 40.96875 53.773438 C 40.96875 56.257812 39.015625 58.414062 36.484375 58.414062 L 23.03125 58.414062 C 21.6875 58.414062 20.5 57.804688 19.671875 56.828125 C 18.980469 56.019531 18.554688 54.9375 18.554688 53.773438 L 18.554688 40.707031 L 15.269531 40.707031 C 14.460938 39.523438 13.742188 38.449219 13.136719 37.121094 L 22.140625 37.121094 L 22.140625 53.773438 C 22.140625 54.355469 22.546875 54.828125 23.035156 54.828125 L 36.488281 54.828125 C 36.980469 54.828125 37.382812 54.355469 37.382812 53.773438 L 37.382812 53.40625 C 38.609375 52.984375 39.808594 52.523438 40.972656 51.941406 Z M 51.410156 17.5625 C 43.828125 21.492188 33.539062 30.734375 28.550781 37.082031 C 25.648438 33.222656 22.203125 28.523438 18.59375 26.066406 C 22.25 27.054688 25.234375 29.023438 28.550781 30.503906 C 35.363281 25.230469 43.207031 20.300781 51.410156 17.5625 Z M 28.28125 21.917969 C 29.726562 21.917969 30.902344 23.085938 30.902344 24.539062 C 30.902344 25.984375 29.726562 27.160156 28.28125 27.160156 C 26.835938 27.160156 25.660156 25.984375 25.660156 24.539062 C 25.660156 23.089844 26.832031 21.917969 28.28125 21.917969 Z M 58.675781 22.773438 L 58.675781 36.226562 C 58.675781 38.757812 56.515625 40.707031 54.035156 40.707031 L 40.96875 40.707031 L 40.96875 43.992188 C 39.78125 44.800781 38.707031 45.519531 37.378906 46.125 L 37.378906 37.121094 L 54.03125 37.121094 C 54.613281 37.121094 55.085938 36.71875 55.085938 36.226562 L 55.085938 22.773438 C 55.085938 22.28125 54.613281 21.878906 54.03125 21.878906 L 53.664062 21.878906 C 53.304688 20.835938 52.933594 19.839844 52.464844 18.832031 L 53.464844 18.289062 L 54.03125 18.289062 C 56.515625 18.289062 58.671875 20.242188 58.671875 22.773438 Z M 58.675781 22.773438 " fill-opacity="1" fill-rule="nonzero"/></g><path fill="#5170ff" d="M 45.957031 17.945312 C 44.984375 16.589844 43.84375 15.351562 42.570312 14.277344 L 42.570312 9.816406 C 45.265625 11.578125 47.589844 13.882812 49.359375 16.570312 C 48.210938 16.988281 47.078125 17.453125 45.957031 17.945312 Z M 48.722656 35.511719 C 49.324219 33.617188 49.648438 31.59375 49.648438 29.496094 C 49.648438 26.644531 49.046875 23.941406 47.972656 21.488281 C 48.984375 20.808594 50.015625 20.167969 51.046875 19.585938 C 52.453125 22.597656 53.234375 25.953125 53.234375 29.492188 C 53.234375 31.574219 52.964844 33.589844 52.460938 35.511719 Z M 23.742188 48.460938 C 25.636719 49.058594 27.660156 49.386719 29.757812 49.386719 C 35.863281 49.386719 41.324219 46.632812 44.972656 42.304688 L 49.433594 42.304688 C 45.09375 48.953125 37.730469 52.96875 29.757812 52.96875 C 27.675781 52.96875 25.660156 52.699219 23.742188 52.191406 L 23.742188 48.457031 Z M 10.792969 23.476562 C 10.195312 25.375 9.867188 27.398438 9.867188 29.496094 C 9.867188 35.601562 12.621094 41.0625 16.949219 44.710938 L 16.949219 49.171875 C 10.300781 44.832031 6.285156 37.46875 6.285156 29.492188 C 6.285156 27.410156 6.554688 25.394531 7.0625 23.472656 L 10.792969 23.472656 Z M 29.757812 6.019531 C 31.839844 6.019531 33.855469 6.289062 35.777344 6.792969 L 35.777344 10.527344 C 33.878906 9.925781 31.855469 9.601562 29.757812 9.601562 C 23.652344 9.601562 18.191406 12.351562 14.542969 16.683594 L 10.082031 16.683594 C 14.429688 10.023438 21.804688 6.019531 29.761719 6.019531 Z M 29.757812 6.019531 " fill-opacity="1" fill-rule="nonzero"/><g clip-path="url(#d41c161798)"><path fill="#333333" d="M 29.097656 58.402344 L 29.101562 58.402344 L 29.113281 58.414062 C 29.539062 57.863281 29.976562 57.316406 30.421875 56.765625 C 29.980469 57.3125 29.519531 57.855469 29.097656 58.402344 Z M 29.097656 58.402344 " fill-opacity="1" fill-rule="nonzero"/></g><g fill="#5170ff" fill-opacity="1"><g transform="translate(64.62347, 30.273562)"><g><path d="M 5.203125 0 L 1.3125 0 L 1.3125 -16.609375 L 5.203125 -16.609375 L 5.203125 -10.03125 L 11.515625 -10.03125 L 11.515625 -16.609375 L 15.40625 -16.609375 L 15.40625 0 L 11.515625 0 L 11.515625 -6.546875 L 5.203125 -6.546875 Z M 5.203125 0 "/></g></g></g><g fill="#5170ff" fill-opacity="1"><g transform="translate(80.827943, 30.273562)"><g><path d="M 7.140625 0.265625 C 5.835938 0.265625 4.703125 -0.0078125 3.734375 -0.5625 C 2.765625 -1.113281 2.015625 -1.863281 1.484375 -2.8125 C 0.960938 -3.769531 0.703125 -4.859375 0.703125 -6.078125 C 0.703125 -6.859375 0.820312 -7.632812 1.0625 -8.40625 C 1.300781 -9.175781 1.675781 -9.878906 2.1875 -10.515625 C 2.695312 -11.148438 3.351562 -11.65625 4.15625 -12.03125 C 4.957031 -12.414062 5.914062 -12.609375 7.03125 -12.609375 C 7.84375 -12.609375 8.628906 -12.488281 9.390625 -12.25 C 10.148438 -12.007812 10.832031 -11.625 11.4375 -11.09375 C 12.039062 -10.570312 12.519531 -9.894531 12.875 -9.0625 C 13.226562 -8.226562 13.40625 -7.21875 13.40625 -6.03125 L 13.40625 -5.390625 L 4.53125 -5.390625 C 4.625 -4.722656 4.832031 -4.195312 5.15625 -3.8125 C 5.414062 -3.488281 5.726562 -3.25 6.09375 -3.09375 C 6.46875 -2.945312 6.878906 -2.875 7.328125 -2.875 C 7.878906 -2.875 8.347656 -3.007812 8.734375 -3.28125 C 9.117188 -3.5625 9.382812 -3.890625 9.53125 -4.265625 L 13.21875 -4.265625 C 12.976562 -3.453125 12.601562 -2.703125 12.09375 -2.015625 C 11.59375 -1.328125 10.929688 -0.773438 10.109375 -0.359375 C 9.285156 0.0546875 8.296875 0.265625 7.140625 0.265625 Z M 4.640625 -7.984375 L 9.703125 -7.984375 C 9.671875 -8.128906 9.613281 -8.300781 9.53125 -8.5 C 9.457031 -8.707031 9.320312 -8.90625 9.125 -9.09375 C 8.863281 -9.351562 8.566406 -9.535156 8.234375 -9.640625 C 7.898438 -9.753906 7.539062 -9.8125 7.15625 -9.8125 C 6.789062 -9.8125 6.4375 -9.753906 6.09375 -9.640625 C 5.757812 -9.535156 5.460938 -9.351562 5.203125 -9.09375 C 4.992188 -8.894531 4.851562 -8.695312 4.78125 -8.5 C 4.707031 -8.300781 4.660156 -8.128906 4.640625 -7.984375 Z M 4.640625 -7.984375 "/></g></g></g><g fill="#5170ff" fill-opacity="1"><g transform="translate(94.378766, 30.273562)"><g><path d="M 4.765625 0.265625 C 4.023438 0.265625 3.347656 0.128906 2.734375 -0.140625 C 2.128906 -0.421875 1.640625 -0.835938 1.265625 -1.390625 C 0.898438 -1.941406 0.71875 -2.628906 0.71875 -3.453125 C 0.71875 -4.203125 0.863281 -4.8125 1.15625 -5.28125 C 1.445312 -5.757812 1.816406 -6.144531 2.265625 -6.4375 C 2.703125 -6.726562 3.179688 -6.941406 3.703125 -7.078125 C 4.222656 -7.222656 4.71875 -7.335938 5.1875 -7.421875 L 8.375 -7.984375 C 8.332031 -8.609375 8.164062 -9.085938 7.875 -9.421875 C 7.601562 -9.710938 7.191406 -9.859375 6.640625 -9.859375 C 6.210938 -9.859375 5.820312 -9.71875 5.46875 -9.4375 C 5.113281 -9.15625 4.894531 -8.753906 4.8125 -8.234375 L 1.171875 -8.234375 C 1.335938 -9.253906 1.691406 -10.085938 2.234375 -10.734375 C 2.785156 -11.378906 3.453125 -11.851562 4.234375 -12.15625 C 5.023438 -12.457031 5.832031 -12.609375 6.65625 -12.609375 C 7.382812 -12.609375 8.082031 -12.507812 8.75 -12.3125 C 9.414062 -12.113281 9.992188 -11.804688 10.484375 -11.390625 C 10.992188 -10.953125 11.351562 -10.445312 11.5625 -9.875 C 11.78125 -9.3125 11.910156 -8.691406 11.953125 -8.015625 C 11.992188 -7.347656 12.015625 -6.628906 12.015625 -5.859375 L 12.015625 0 L 8.359375 0 L 8.359375 -1.5 C 8.148438 -1.019531 7.859375 -0.648438 7.484375 -0.390625 C 7.117188 -0.140625 6.703125 0.03125 6.234375 0.125 C 5.765625 0.21875 5.273438 0.265625 4.765625 0.265625 Z M 5.828125 -2.5 C 6.265625 -2.5 6.707031 -2.601562 7.15625 -2.8125 C 7.664062 -3.039062 8.003906 -3.359375 8.171875 -3.765625 C 8.335938 -4.179688 8.425781 -4.722656 8.4375 -5.390625 L 6.203125 -4.96875 C 5.796875 -4.894531 5.484375 -4.8125 5.265625 -4.71875 C 5.046875 -4.632812 4.859375 -4.519531 4.703125 -4.375 C 4.597656 -4.269531 4.515625 -4.15625 4.453125 -4.03125 C 4.398438 -3.914062 4.375 -3.769531 4.375 -3.59375 C 4.375 -3.195312 4.519531 -2.914062 4.8125 -2.75 C 5.101562 -2.582031 5.441406 -2.5 5.828125 -2.5 Z M 5.828125 -2.5 "/></g></g></g><g fill="#5170ff" fill-opacity="1"><g transform="translate(106.907279, 30.273562)"><g><path d="M 6.421875 0 L 3.96875 0 C 3.0625 0 2.359375 -0.210938 1.859375 -0.640625 C 1.367188 -1.066406 1.125 -1.671875 1.125 -2.453125 L 1.125 -16.609375 L 4.78125 -16.609375 L 4.78125 -3.71875 C 4.78125 -3.382812 4.863281 -3.171875 5.03125 -3.078125 C 5.207031 -2.992188 5.363281 -2.953125 5.5 -2.953125 L 6.421875 -2.953125 Z M 6.421875 0 "/></g></g></g><g fill="#5170ff" fill-opacity="1"><g transform="translate(113.280195, 30.273562)"><g><path d="M 7.921875 0 L 5 0 C 4.101562 0 3.40625 -0.210938 2.90625 -0.640625 C 2.40625 -1.066406 2.15625 -1.671875 2.15625 -2.453125 L 2.15625 -9.484375 L 0.453125 -9.484375 L 0.453125 -12.34375 L 2.15625 -12.34375 L 2.15625 -16.609375 L 5.8125 -16.609375 L 5.8125 -12.34375 L 7.9375 -12.34375 L 7.9375 -9.484375 L 5.8125 -9.484375 L 5.8125 -3.703125 C 5.8125 -3.523438 5.851562 -3.351562 5.9375 -3.1875 C 6.03125 -3.03125 6.234375 -2.953125 6.546875 -2.953125 L 7.921875 -2.953125 Z M 7.921875 0 "/></g></g></g><g fill="#5170ff" fill-opacity="1"><g transform="translate(121.39321, 30.273562)"><g><path d="M 4.859375 0 L 1.203125 0 L 1.203125 -16.609375 L 4.859375 -16.609375 L 4.859375 -11.015625 C 5.273438 -11.640625 5.738281 -12.0625 6.25 -12.28125 C 6.769531 -12.5 7.359375 -12.609375 8.015625 -12.609375 C 8.828125 -12.609375 9.492188 -12.507812 10.015625 -12.3125 C 10.546875 -12.113281 10.96875 -11.847656 11.28125 -11.515625 C 11.59375 -11.191406 11.832031 -10.84375 12 -10.46875 C 12.238281 -9.925781 12.375 -9.382812 12.40625 -8.84375 C 12.445312 -8.3125 12.46875 -7.664062 12.46875 -6.90625 L 12.46875 0 L 8.8125 0 L 8.8125 -6.9375 C 8.8125 -7.550781 8.769531 -8.035156 8.6875 -8.390625 C 8.613281 -8.742188 8.484375 -9.015625 8.296875 -9.203125 C 8.003906 -9.503906 7.550781 -9.65625 6.9375 -9.65625 C 6.5625 -9.65625 6.234375 -9.609375 5.953125 -9.515625 C 5.679688 -9.421875 5.46875 -9.257812 5.3125 -9.03125 C 5.164062 -8.832031 5.050781 -8.566406 4.96875 -8.234375 C 4.894531 -7.910156 4.859375 -7.476562 4.859375 -6.9375 Z M 4.859375 0 "/></g></g></g><g fill="#5170ff" fill-opacity="1"><g transform="translate(134.422003, 30.273562)"><g><path d="M 8.296875 0.375 C 7.515625 0.375 6.691406 0.273438 5.828125 0.078125 C 4.972656 -0.117188 4.164062 -0.441406 3.40625 -0.890625 C 2.65625 -1.335938 2.03125 -1.945312 1.53125 -2.71875 C 1.03125 -3.5 0.742188 -4.472656 0.671875 -5.640625 L 4.703125 -5.640625 C 4.890625 -4.910156 5.164062 -4.347656 5.53125 -3.953125 C 5.90625 -3.554688 6.332031 -3.28125 6.8125 -3.125 C 7.289062 -2.96875 7.773438 -2.890625 8.265625 -2.890625 C 8.722656 -2.890625 9.144531 -2.953125 9.53125 -3.078125 C 9.925781 -3.210938 10.242188 -3.414062 10.484375 -3.6875 C 10.734375 -3.957031 10.859375 -4.3125 10.859375 -4.75 C 10.859375 -5.175781 10.691406 -5.515625 10.359375 -5.765625 C 10.023438 -6.023438 9.582031 -6.234375 9.03125 -6.390625 C 8.476562 -6.554688 7.875 -6.710938 7.21875 -6.859375 C 6.53125 -7.015625 5.828125 -7.191406 5.109375 -7.390625 C 4.390625 -7.597656 3.726562 -7.878906 3.125 -8.234375 C 2.519531 -8.585938 2.03125 -9.054688 1.65625 -9.640625 C 1.289062 -10.222656 1.109375 -10.972656 1.109375 -11.890625 C 1.109375 -13.035156 1.382812 -13.976562 1.9375 -14.71875 C 2.488281 -15.46875 3.234375 -16.023438 4.171875 -16.390625 C 5.109375 -16.765625 6.140625 -16.953125 7.265625 -16.953125 C 8.429688 -16.953125 9.519531 -16.75 10.53125 -16.34375 C 11.550781 -15.9375 12.398438 -15.320312 13.078125 -14.5 C 13.765625 -13.6875 14.191406 -12.660156 14.359375 -11.421875 L 10.34375 -11.421875 C 10.15625 -12.140625 9.785156 -12.695312 9.234375 -13.09375 C 8.679688 -13.488281 8 -13.6875 7.1875 -13.6875 C 6.632812 -13.6875 6.128906 -13.570312 5.671875 -13.34375 C 5.210938 -13.113281 4.984375 -12.734375 4.984375 -12.203125 C 4.984375 -11.816406 5.140625 -11.5 5.453125 -11.25 C 5.773438 -11.007812 6.203125 -10.8125 6.734375 -10.65625 C 7.273438 -10.5 7.859375 -10.347656 8.484375 -10.203125 C 9.179688 -10.046875 9.898438 -9.863281 10.640625 -9.65625 C 11.378906 -9.445312 12.0625 -9.15625 12.6875 -8.78125 C 13.3125 -8.414062 13.816406 -7.921875 14.203125 -7.296875 C 14.585938 -6.679688 14.78125 -5.894531 14.78125 -4.9375 C 14.78125 -3.851562 14.519531 -2.914062 14 -2.125 C 13.476562 -1.332031 12.734375 -0.71875 11.765625 -0.28125 C 10.796875 0.15625 9.640625 0.375 8.296875 0.375 Z M 8.296875 0.375 "/></g></g></g><g fill="#5170ff" fill-opacity="1"><g transform="translate(149.364906, 30.273562)"><g><path d="M 7.1875 0.265625 C 5.90625 0.265625 4.773438 0 3.796875 -0.53125 C 2.816406 -1.070312 2.054688 -1.832031 1.515625 -2.8125 C 0.972656 -3.789062 0.703125 -4.9375 0.703125 -6.25 C 0.703125 -7.507812 0.972656 -8.613281 1.515625 -9.5625 C 2.054688 -10.507812 2.8125 -11.253906 3.78125 -11.796875 C 4.757812 -12.335938 5.894531 -12.609375 7.1875 -12.609375 C 8.476562 -12.609375 9.609375 -12.335938 10.578125 -11.796875 C 11.546875 -11.253906 12.300781 -10.507812 12.84375 -9.5625 C 13.394531 -8.613281 13.671875 -7.507812 13.671875 -6.25 C 13.671875 -4.9375 13.398438 -3.796875 12.859375 -2.828125 C 12.328125 -1.859375 11.570312 -1.097656 10.59375 -0.546875 C 9.625 -0.00390625 8.488281 0.265625 7.1875 0.265625 Z M 7.1875 -2.875 C 8.007812 -2.875 8.660156 -3.179688 9.140625 -3.796875 C 9.617188 -4.410156 9.859375 -5.226562 9.859375 -6.25 C 9.859375 -7.207031 9.617188 -7.984375 9.140625 -8.578125 C 8.660156 -9.179688 8.007812 -9.484375 7.1875 -9.484375 C 6.375 -9.484375 5.71875 -9.1875 5.21875 -8.59375 C 4.71875 -8 4.46875 -7.21875 4.46875 -6.25 C 4.46875 -5.21875 4.71875 -4.394531 5.21875 -3.78125 C 5.71875 -3.175781 6.375 -2.875 7.1875 -2.875 Z M 7.1875 -2.875 "/></g></g></g><g fill="#5170ff" fill-opacity="1"><g transform="translate(163.176748, 30.273562)"><g><path d="M 5.921875 0 L 2.21875 0 L 2.21875 -9.515625 L 0.453125 -9.515625 L 0.453125 -12.34375 L 2.21875 -12.34375 L 2.21875 -13.53125 C 2.21875 -14.507812 2.519531 -15.265625 3.125 -15.796875 C 3.738281 -16.335938 4.613281 -16.609375 5.75 -16.609375 L 7.765625 -16.609375 L 7.765625 -13.796875 L 6.640625 -13.796875 C 6.492188 -13.796875 6.335938 -13.742188 6.171875 -13.640625 C 6.003906 -13.546875 5.921875 -13.332031 5.921875 -13 L 5.921875 -12.34375 L 7.765625 -12.34375 L 7.765625 -9.515625 L 5.921875 -9.515625 Z M 5.921875 0 "/></g></g></g><g fill="#5170ff" fill-opacity="1"><g transform="translate(170.854734, 30.273562)"><g><path d="M 7.921875 0 L 5 0 C 4.101562 0 3.40625 -0.210938 2.90625 -0.640625 C 2.40625 -1.066406 2.15625 -1.671875 2.15625 -2.453125 L 2.15625 -9.484375 L 0.453125 -9.484375 L 0.453125 -12.34375 L 2.15625 -12.34375 L 2.15625 -16.609375 L 5.8125 -16.609375 L 5.8125 -12.34375 L 7.9375 -12.34375 L 7.9375 -9.484375 L 5.8125 -9.484375 L 5.8125 -3.703125 C 5.8125 -3.523438 5.851562 -3.351562 5.9375 -3.1875 C 6.03125 -3.03125 6.234375 -2.953125 6.546875 -2.953125 L 7.921875 -2.953125 Z M 7.921875 0 "/></g></g></g><g transform="matrix(1, 0, 0, 1, 64, 36)"><g clip-path="url(#51878345f5)"><g fill="#5170ff" fill-opacity="1"><g transform="translate(1.550131, 10.297028)"><g><path d="M 3.09375 0 L 0.84375 0 L 0.84375 -8.203125 L 3.109375 -8.203125 C 4.472656 -8.203125 5.515625 -7.84375 6.234375 -7.125 C 6.960938 -6.40625 7.328125 -5.390625 7.328125 -4.078125 C 7.328125 -2.773438 6.960938 -1.769531 6.234375 -1.0625 C 5.515625 -0.351562 4.46875 0 3.09375 0 Z M 1.84375 -7.3125 L 1.84375 -0.890625 L 3.078125 -0.890625 C 3.515625 -0.890625 3.925781 -0.929688 4.3125 -1.015625 C 4.707031 -1.109375 5.054688 -1.269531 5.359375 -1.5 C 5.660156 -1.738281 5.894531 -2.066406 6.0625 -2.484375 C 6.238281 -2.898438 6.328125 -3.429688 6.328125 -4.078125 C 6.328125 -4.878906 6.1875 -5.515625 5.90625 -5.984375 C 5.632812 -6.453125 5.253906 -6.789062 4.765625 -7 C 4.285156 -7.207031 3.726562 -7.3125 3.09375 -7.3125 Z M 1.84375 -7.3125 "/></g></g></g><g fill="#5170ff" fill-opacity="1"><g transform="translate(9.147348, 10.297028)"><g><path d="M 2.453125 0.109375 C 1.859375 0.109375 1.382812 -0.0390625 1.03125 -0.34375 C 0.6875 -0.644531 0.515625 -1.054688 0.515625 -1.578125 C 0.515625 -2.097656 0.707031 -2.507812 1.09375 -2.8125 C 1.40625 -3.0625 1.863281 -3.242188 2.46875 -3.359375 L 4.578125 -3.765625 C 4.578125 -4.234375 4.457031 -4.59375 4.21875 -4.84375 C 3.945312 -5.113281 3.582031 -5.25 3.125 -5.25 C 2.75 -5.25 2.425781 -5.148438 2.15625 -4.953125 C 1.894531 -4.765625 1.726562 -4.5 1.65625 -4.15625 L 0.734375 -4.15625 C 0.804688 -4.570312 0.957031 -4.921875 1.1875 -5.203125 C 1.425781 -5.484375 1.710938 -5.691406 2.046875 -5.828125 C 2.390625 -5.972656 2.75 -6.046875 3.125 -6.046875 C 3.46875 -6.046875 3.789062 -5.992188 4.09375 -5.890625 C 4.40625 -5.796875 4.664062 -5.644531 4.875 -5.4375 C 5.082031 -5.238281 5.226562 -5.015625 5.3125 -4.765625 C 5.394531 -4.515625 5.445312 -4.273438 5.46875 -4.046875 C 5.488281 -3.816406 5.5 -3.632812 5.5 -3.5 L 5.5 0 L 4.578125 0 L 4.578125 -0.9375 C 4.367188 -0.632812 4.128906 -0.398438 3.859375 -0.234375 C 3.660156 -0.109375 3.441406 -0.0195312 3.203125 0.03125 C 2.972656 0.0820312 2.722656 0.109375 2.453125 0.109375 Z M 2.5625 -0.703125 C 2.925781 -0.703125 3.238281 -0.769531 3.5 -0.90625 C 3.925781 -1.125 4.210938 -1.410156 4.359375 -1.765625 C 4.515625 -2.117188 4.59375 -2.539062 4.59375 -3.03125 L 2.65625 -2.640625 C 2.207031 -2.554688 1.878906 -2.414062 1.671875 -2.21875 C 1.515625 -2.0625 1.4375 -1.859375 1.4375 -1.609375 C 1.4375 -1.328125 1.535156 -1.101562 1.734375 -0.9375 C 1.941406 -0.78125 2.21875 -0.703125 2.5625 -0.703125 Z M 2.5625 -0.703125 "/></g></g></g><g fill="#5170ff" fill-opacity="1"><g transform="translate(15.068166, 10.297028)"><g><path d="M 3.15625 0.109375 C 2.394531 0.109375 1.78125 -0.0703125 1.3125 -0.4375 C 0.84375 -0.800781 0.5625 -1.289062 0.46875 -1.90625 L 1.421875 -1.90625 C 1.492188 -1.550781 1.671875 -1.257812 1.953125 -1.03125 C 2.234375 -0.8125 2.640625 -0.703125 3.171875 -0.703125 C 3.566406 -0.703125 3.890625 -0.773438 4.140625 -0.921875 C 4.398438 -1.078125 4.53125 -1.304688 4.53125 -1.609375 C 4.53125 -1.859375 4.453125 -2.050781 4.296875 -2.1875 C 4.140625 -2.320312 3.929688 -2.425781 3.671875 -2.5 C 3.421875 -2.570312 3.148438 -2.640625 2.859375 -2.703125 C 2.597656 -2.753906 2.335938 -2.8125 2.078125 -2.875 C 1.828125 -2.9375 1.597656 -3.023438 1.390625 -3.140625 C 1.179688 -3.253906 1.015625 -3.40625 0.890625 -3.59375 C 0.765625 -3.789062 0.703125 -4.039062 0.703125 -4.34375 C 0.703125 -4.71875 0.796875 -5.03125 0.984375 -5.28125 C 1.179688 -5.539062 1.441406 -5.734375 1.765625 -5.859375 C 2.097656 -5.984375 2.46875 -6.046875 2.875 -6.046875 C 3.519531 -6.046875 4.054688 -5.878906 4.484375 -5.546875 C 4.910156 -5.210938 5.175781 -4.75 5.28125 -4.15625 L 4.421875 -4.15625 C 4.335938 -4.539062 4.15625 -4.816406 3.875 -4.984375 C 3.601562 -5.160156 3.269531 -5.25 2.875 -5.25 C 2.476562 -5.25 2.171875 -5.175781 1.953125 -5.03125 C 1.734375 -4.882812 1.625 -4.679688 1.625 -4.421875 C 1.625 -4.210938 1.695312 -4.046875 1.84375 -3.921875 C 1.988281 -3.804688 2.179688 -3.71875 2.421875 -3.65625 C 2.660156 -3.59375 2.914062 -3.535156 3.1875 -3.484375 C 3.445312 -3.429688 3.710938 -3.367188 3.984375 -3.296875 C 4.253906 -3.234375 4.5 -3.140625 4.71875 -3.015625 C 4.9375 -2.898438 5.113281 -2.738281 5.25 -2.53125 C 5.382812 -2.320312 5.453125 -2.046875 5.453125 -1.703125 C 5.453125 -1.160156 5.25 -0.722656 4.84375 -0.390625 C 4.445312 -0.0546875 3.882812 0.109375 3.15625 0.109375 Z M 3.15625 0.109375 "/></g></g></g><g fill="#5170ff" fill-opacity="1"><g transform="translate(20.78481, 10.297028)"><g><path d="M 1.6875 0 L 0.78125 0 L 0.78125 -8.203125 L 1.6875 -8.203125 L 1.6875 -5.015625 C 1.988281 -5.398438 2.273438 -5.664062 2.546875 -5.8125 C 2.828125 -5.96875 3.128906 -6.046875 3.453125 -6.046875 C 3.921875 -6.046875 4.289062 -5.957031 4.5625 -5.78125 C 4.84375 -5.613281 5.054688 -5.390625 5.203125 -5.109375 C 5.347656 -4.847656 5.429688 -4.570312 5.453125 -4.28125 C 5.472656 -4 5.484375 -3.765625 5.484375 -3.578125 L 5.484375 0 L 4.5625 0 L 4.5625 -3.578125 C 4.5625 -4.210938 4.445312 -4.65625 4.21875 -4.90625 C 4.019531 -5.132812 3.71875 -5.25 3.3125 -5.25 C 3.070312 -5.25 2.859375 -5.207031 2.671875 -5.125 C 2.492188 -5.050781 2.34375 -4.945312 2.21875 -4.8125 C 2.03125 -4.601562 1.894531 -4.320312 1.8125 -3.96875 C 1.726562 -3.625 1.6875 -3.144531 1.6875 -2.53125 Z M 1.6875 0 "/></g></g></g><g fill="#5170ff" fill-opacity="1"><g transform="translate(26.716374, 10.297028)"><g><path d="M 3.640625 0.109375 C 3.222656 0.109375 2.867188 0.0351562 2.578125 -0.109375 C 2.285156 -0.265625 1.988281 -0.535156 1.6875 -0.921875 L 1.6875 0 L 0.78125 0 L 0.78125 -8.203125 L 1.6875 -8.203125 L 1.6875 -5.015625 C 2 -5.421875 2.300781 -5.691406 2.59375 -5.828125 C 2.894531 -5.972656 3.242188 -6.046875 3.640625 -6.046875 C 4.171875 -6.046875 4.632812 -5.914062 5.03125 -5.65625 C 5.425781 -5.394531 5.734375 -5.03125 5.953125 -4.5625 C 6.171875 -4.101562 6.28125 -3.570312 6.28125 -2.96875 C 6.28125 -2.363281 6.171875 -1.828125 5.953125 -1.359375 C 5.734375 -0.898438 5.425781 -0.539062 5.03125 -0.28125 C 4.632812 -0.0195312 4.171875 0.109375 3.640625 0.109375 Z M 3.546875 -0.703125 C 3.921875 -0.703125 4.242188 -0.800781 4.515625 -1 C 4.785156 -1.195312 4.992188 -1.46875 5.140625 -1.8125 C 5.285156 -2.15625 5.359375 -2.539062 5.359375 -2.96875 C 5.359375 -3.40625 5.285156 -3.789062 5.140625 -4.125 C 4.992188 -4.46875 4.785156 -4.738281 4.515625 -4.9375 C 4.242188 -5.144531 3.921875 -5.25 3.546875 -5.25 C 3.179688 -5.25 2.851562 -5.148438 2.5625 -4.953125 C 2.28125 -4.753906 2.054688 -4.484375 1.890625 -4.140625 C 1.734375 -3.804688 1.65625 -3.414062 1.65625 -2.96875 C 1.65625 -2.53125 1.734375 -2.140625 1.890625 -1.796875 C 2.054688 -1.460938 2.28125 -1.195312 2.5625 -1 C 2.851562 -0.800781 3.179688 -0.703125 3.546875 -0.703125 Z M 3.546875 -0.703125 "/></g></g></g><g fill="#5170ff" fill-opacity="1"><g transform="translate(33.260471, 10.297028)"><g><path d="M 3.421875 0.109375 C 2.847656 0.109375 2.34375 -0.0195312 1.90625 -0.28125 C 1.46875 -0.550781 1.125 -0.921875 0.875 -1.390625 C 0.632812 -1.859375 0.515625 -2.394531 0.515625 -3 C 0.515625 -3.582031 0.632812 -4.101562 0.875 -4.5625 C 1.125 -5.019531 1.46875 -5.378906 1.90625 -5.640625 C 2.34375 -5.910156 2.847656 -6.046875 3.421875 -6.046875 C 3.984375 -6.046875 4.484375 -5.910156 4.921875 -5.640625 C 5.367188 -5.378906 5.71875 -5.019531 5.96875 -4.5625 C 6.21875 -4.101562 6.34375 -3.582031 6.34375 -3 C 6.34375 -2.40625 6.21875 -1.875 5.96875 -1.40625 C 5.71875 -0.9375 5.375 -0.566406 4.9375 -0.296875 C 4.5 -0.0234375 3.992188 0.109375 3.421875 0.109375 Z M 3.421875 -0.703125 C 3.796875 -0.703125 4.132812 -0.800781 4.4375 -1 C 4.738281 -1.195312 4.976562 -1.46875 5.15625 -1.8125 C 5.332031 -2.164062 5.421875 -2.5625 5.421875 -3 C 5.421875 -3.425781 5.332031 -3.804688 5.15625 -4.140625 C 4.988281 -4.484375 4.753906 -4.753906 4.453125 -4.953125 C 4.148438 -5.148438 3.804688 -5.25 3.421875 -5.25 C 3.035156 -5.25 2.691406 -5.148438 2.390625 -4.953125 C 2.097656 -4.765625 1.863281 -4.5 1.6875 -4.15625 C 1.519531 -3.8125 1.4375 -3.425781 1.4375 -3 C 1.4375 -2.550781 1.519531 -2.15625 1.6875 -1.8125 C 1.863281 -1.46875 2.101562 -1.195312 2.40625 -1 C 2.707031 -0.800781 3.046875 -0.703125 3.421875 -0.703125 Z M 3.421875 -0.703125 "/></g></g></g><g fill="#5170ff" fill-opacity="1"><g transform="translate(39.858299, 10.297028)"><g><path d="M 2.453125 0.109375 C 1.859375 0.109375 1.382812 -0.0390625 1.03125 -0.34375 C 0.6875 -0.644531 0.515625 -1.054688 0.515625 -1.578125 C 0.515625 -2.097656 0.707031 -2.507812 1.09375 -2.8125 C 1.40625 -3.0625 1.863281 -3.242188 2.46875 -3.359375 L 4.578125 -3.765625 C 4.578125 -4.234375 4.457031 -4.59375 4.21875 -4.84375 C 3.945312 -5.113281 3.582031 -5.25 3.125 -5.25 C 2.75 -5.25 2.425781 -5.148438 2.15625 -4.953125 C 1.894531 -4.765625 1.726562 -4.5 1.65625 -4.15625 L 0.734375 -4.15625 C 0.804688 -4.570312 0.957031 -4.921875 1.1875 -5.203125 C 1.425781 -5.484375 1.710938 -5.691406 2.046875 -5.828125 C 2.390625 -5.972656 2.75 -6.046875 3.125 -6.046875 C 3.46875 -6.046875 3.789062 -5.992188 4.09375 -5.890625 C 4.40625 -5.796875 4.664062 -5.644531 4.875 -5.4375 C 5.082031 -5.238281 5.226562 -5.015625 5.3125 -4.765625 C 5.394531 -4.515625 5.445312 -4.273438 5.46875 -4.046875 C 5.488281 -3.816406 5.5 -3.632812 5.5 -3.5 L 5.5 0 L 4.578125 0 L 4.578125 -0.9375 C 4.367188 -0.632812 4.128906 -0.398438 3.859375 -0.234375 C 3.660156 -0.109375 3.441406 -0.0195312 3.203125 0.03125 C 2.972656 0.0820312 2.722656 0.109375 2.453125 0.109375 Z M 2.5625 -0.703125 C 2.925781 -0.703125 3.238281 -0.769531 3.5 -0.90625 C 3.925781 -1.125 4.210938 -1.410156 4.359375 -1.765625 C 4.515625 -2.117188 4.59375 -2.539062 4.59375 -3.03125 L 2.65625 -2.640625 C 2.207031 -2.554688 1.878906 -2.414062 1.671875 -2.21875 C 1.515625 -2.0625 1.4375 -1.859375 1.4375 -1.609375 C 1.4375 -1.328125 1.535156 -1.101562 1.734375 -0.9375 C 1.941406 -0.78125 2.21875 -0.703125 2.5625 -0.703125 Z M 2.5625 -0.703125 "/></g></g></g><g fill="#5170ff" fill-opacity="1"><g transform="translate(45.779116, 10.297028)"><g><path d="M 1.671875 0 L 0.765625 0 L 0.765625 -5.9375 L 1.671875 -5.9375 L 1.671875 -5.125 C 1.941406 -5.46875 2.234375 -5.707031 2.546875 -5.84375 C 2.859375 -5.976562 3.21875 -6.046875 3.625 -6.046875 L 3.671875 -6.046875 L 3.671875 -5.140625 L 3.359375 -5.140625 C 2.878906 -5.140625 2.492188 -4.992188 2.203125 -4.703125 C 2.035156 -4.546875 1.90625 -4.335938 1.8125 -4.078125 C 1.71875 -3.816406 1.671875 -3.5 1.671875 -3.125 Z M 1.671875 0 "/></g></g></g><g fill="#5170ff" fill-opacity="1"><g transform="translate(49.217414, 10.297028)"><g><path d="M 3.1875 0.109375 C 2.65625 0.109375 2.1875 -0.0195312 1.78125 -0.28125 C 1.382812 -0.539062 1.078125 -0.898438 0.859375 -1.359375 C 0.640625 -1.828125 0.53125 -2.363281 0.53125 -2.96875 C 0.53125 -3.570312 0.640625 -4.101562 0.859375 -4.5625 C 1.078125 -5.03125 1.382812 -5.394531 1.78125 -5.65625 C 2.1875 -5.914062 2.65625 -6.046875 3.1875 -6.046875 C 3.582031 -6.046875 3.925781 -5.972656 4.21875 -5.828125 C 4.519531 -5.691406 4.820312 -5.421875 5.125 -5.015625 L 5.125 -8.203125 L 6.046875 -8.203125 L 6.046875 0 L 5.125 0 L 5.125 -0.921875 C 4.820312 -0.535156 4.523438 -0.265625 4.234375 -0.109375 C 3.941406 0.0351562 3.59375 0.109375 3.1875 0.109375 Z M 3.265625 -0.703125 C 3.640625 -0.703125 3.96875 -0.800781 4.25 -1 C 4.53125 -1.195312 4.75 -1.460938 4.90625 -1.796875 C 5.070312 -2.140625 5.15625 -2.53125 5.15625 -2.96875 C 5.15625 -3.414062 5.070312 -3.804688 4.90625 -4.140625 C 4.75 -4.484375 4.53125 -4.753906 4.25 -4.953125 C 3.96875 -5.148438 3.640625 -5.25 3.265625 -5.25 C 2.890625 -5.25 2.566406 -5.144531 2.296875 -4.9375 C 2.023438 -4.738281 1.816406 -4.46875 1.671875 -4.125 C 1.523438 -3.789062 1.453125 -3.40625 1.453125 -2.96875 C 1.453125 -2.539062 1.523438 -2.15625 1.671875 -1.8125 C 1.816406 -1.46875 2.023438 -1.195312 2.296875 -1 C 2.566406 -0.800781 2.890625 -0.703125 3.265625 -0.703125 Z M 3.265625 -0.703125 "/></g></g></g><g fill="#5170ff" fill-opacity="1"><g transform="translate(55.761511, 10.297028)"><g/></g></g><g fill="#5170ff" fill-opacity="1"><g transform="translate(58.501455, 10.297028)"><g><path d="M 1.84375 0 L 0.84375 0 L 0.84375 -8.203125 L 3.90625 -8.203125 C 4.6875 -8.203125 5.3125 -8.007812 5.78125 -7.625 C 6.257812 -7.238281 6.5 -6.648438 6.5 -5.859375 C 6.5 -5.109375 6.257812 -4.519531 5.78125 -4.09375 C 5.3125 -3.675781 4.6875 -3.46875 3.90625 -3.46875 L 1.84375 -3.46875 Z M 1.84375 -7.3125 L 1.84375 -4.34375 L 3.765625 -4.34375 C 4.335938 -4.34375 4.773438 -4.46875 5.078125 -4.71875 C 5.378906 -4.976562 5.53125 -5.347656 5.53125 -5.828125 C 5.53125 -6.296875 5.375 -6.660156 5.0625 -6.921875 C 4.75 -7.179688 4.316406 -7.3125 3.765625 -7.3125 Z M 1.84375 -7.3125 "/></g></g></g><g fill="#5170ff" fill-opacity="1"><g transform="translate(64.830404, 10.297028)"><g><path d="M 2.453125 0.109375 C 1.859375 0.109375 1.382812 -0.0390625 1.03125 -0.34375 C 0.6875 -0.644531 0.515625 -1.054688 0.515625 -1.578125 C 0.515625 -2.097656 0.707031 -2.507812 1.09375 -2.8125 C 1.40625 -3.0625 1.863281 -3.242188 2.46875 -3.359375 L 4.578125 -3.765625 C 4.578125 -4.234375 4.457031 -4.59375 4.21875 -4.84375 C 3.945312 -5.113281 3.582031 -5.25 3.125 -5.25 C 2.75 -5.25 2.425781 -5.148438 2.15625 -4.953125 C 1.894531 -4.765625 1.726562 -4.5 1.65625 -4.15625 L 0.734375 -4.15625 C 0.804688 -4.570312 0.957031 -4.921875 1.1875 -5.203125 C 1.425781 -5.484375 1.710938 -5.691406 2.046875 -5.828125 C 2.390625 -5.972656 2.75 -6.046875 3.125 -6.046875 C 3.46875 -6.046875 3.789062 -5.992188 4.09375 -5.890625 C 4.40625 -5.796875 4.664062 -5.644531 4.875 -5.4375 C 5.082031 -5.238281 5.226562 -5.015625 5.3125 -4.765625 C 5.394531 -4.515625 5.445312 -4.273438 5.46875 -4.046875 C 5.488281 -3.816406 5.5 -3.632812 5.5 -3.5 L 5.5 0 L 4.578125 0 L 4.578125 -0.9375 C 4.367188 -0.632812 4.128906 -0.398438 3.859375 -0.234375 C 3.660156 -0.109375 3.441406 -0.0195312 3.203125 0.03125 C 2.972656 0.0820312 2.722656 0.109375 2.453125 0.109375 Z M 2.5625 -0.703125 C 2.925781 -0.703125 3.238281 -0.769531 3.5 -0.90625 C 3.925781 -1.125 4.210938 -1.410156 4.359375 -1.765625 C 4.515625 -2.117188 4.59375 -2.539062 4.59375 -3.03125 L 2.65625 -2.640625 C 2.207031 -2.554688 1.878906 -2.414062 1.671875 -2.21875 C 1.515625 -2.0625 1.4375 -1.859375 1.4375 -1.609375 C 1.4375 -1.328125 1.535156 -1.101562 1.734375 -0.9375 C 1.941406 -0.78125 2.21875 -0.703125 2.5625 -0.703125 Z M 2.5625 -0.703125 "/></g></g></g><g fill="#5170ff" fill-opacity="1"><g transform="translate(70.751222, 10.297028)"><g><path d="M 1.671875 0 L 0.765625 0 L 0.765625 -5.9375 L 1.671875 -5.9375 L 1.671875 -5.015625 C 1.972656 -5.398438 2.257812 -5.664062 2.53125 -5.8125 C 2.8125 -5.96875 3.113281 -6.046875 3.4375 -6.046875 C 3.90625 -6.046875 4.28125 -5.957031 4.5625 -5.78125 C 4.84375 -5.613281 5.050781 -5.390625 5.1875 -5.109375 C 5.332031 -4.847656 5.414062 -4.570312 5.4375 -4.28125 C 5.457031 -4 5.46875 -3.765625 5.46875 -3.578125 L 5.46875 0 L 4.5625 0 L 4.5625 -3.578125 C 4.5625 -4.210938 4.445312 -4.65625 4.21875 -4.90625 C 4.007812 -5.132812 3.703125 -5.25 3.296875 -5.25 C 3.054688 -5.25 2.84375 -5.207031 2.65625 -5.125 C 2.476562 -5.050781 2.332031 -4.945312 2.21875 -4.8125 C 2.019531 -4.601562 1.878906 -4.320312 1.796875 -3.96875 C 1.710938 -3.625 1.671875 -3.144531 1.671875 -2.53125 Z M 1.671875 0 "/></g></g></g><g fill="#5170ff" fill-opacity="1"><g transform="translate(76.67204, 10.297028)"><g><path d="M 3.40625 0.109375 C 2.84375 0.109375 2.34375 -0.0234375 1.90625 -0.296875 C 1.46875 -0.566406 1.125 -0.929688 0.875 -1.390625 C 0.632812 -1.847656 0.515625 -2.367188 0.515625 -2.953125 C 0.515625 -3.492188 0.625 -4 0.84375 -4.46875 C 1.070312 -4.945312 1.398438 -5.328125 1.828125 -5.609375 C 2.253906 -5.898438 2.773438 -6.046875 3.390625 -6.046875 C 3.890625 -6.046875 4.351562 -5.9375 4.78125 -5.71875 C 5.21875 -5.5 5.570312 -5.171875 5.84375 -4.734375 C 6.113281 -4.296875 6.25 -3.757812 6.25 -3.125 L 6.25 -2.796875 L 1.421875 -2.796875 C 1.429688 -2.585938 1.46875 -2.390625 1.53125 -2.203125 C 1.6875 -1.742188 1.925781 -1.378906 2.25 -1.109375 C 2.582031 -0.835938 2.960938 -0.703125 3.390625 -0.703125 C 3.847656 -0.703125 4.226562 -0.820312 4.53125 -1.0625 C 4.832031 -1.300781 5.046875 -1.582031 5.171875 -1.90625 L 6.15625 -1.90625 C 6.03125 -1.539062 5.84375 -1.203125 5.59375 -0.890625 C 5.351562 -0.585938 5.050781 -0.34375 4.6875 -0.15625 C 4.332031 0.0195312 3.90625 0.109375 3.40625 0.109375 Z M 1.5 -3.59375 L 5.28125 -3.59375 C 5.269531 -3.695312 5.253906 -3.796875 5.234375 -3.890625 C 5.210938 -3.992188 5.1875 -4.09375 5.15625 -4.1875 C 4.988281 -4.53125 4.75 -4.789062 4.4375 -4.96875 C 4.132812 -5.15625 3.789062 -5.25 3.40625 -5.25 C 3.007812 -5.25 2.660156 -5.15625 2.359375 -4.96875 C 2.066406 -4.78125 1.835938 -4.519531 1.671875 -4.1875 C 1.628906 -4.09375 1.59375 -3.992188 1.5625 -3.890625 C 1.539062 -3.785156 1.519531 -3.6875 1.5 -3.59375 Z M 1.5 -3.59375 "/></g></g></g><g fill="#5170ff" fill-opacity="1"><g transform="translate(83.162407, 10.297028)"><g><path d="M 2.65625 0 L 2.15625 0 C 1.851562 0 1.597656 -0.0390625 1.390625 -0.125 C 1.179688 -0.207031 1.019531 -0.359375 0.90625 -0.578125 C 0.789062 -0.796875 0.734375 -1.101562 0.734375 -1.5 L 0.734375 -8.203125 L 1.65625 -8.203125 L 1.65625 -1.640625 C 1.65625 -1.453125 1.664062 -1.296875 1.6875 -1.171875 C 1.71875 -1.054688 1.78125 -0.96875 1.875 -0.90625 C 1.976562 -0.84375 2.140625 -0.8125 2.359375 -0.8125 L 2.65625 -0.8125 Z M 2.65625 0 "/></g></g></g></g></g></g></g></svg>