<svg xmlns="http://www.w3.org/2000/svg" xmlns:xlink="http://www.w3.org/1999/xlink" width="217" zoomAndPan="magnify" viewBox="0 0 162.75 34.499999" height="46" preserveAspectRatio="xMidYMid meet" version="1.0"><defs><g/><clipPath id="95c4f5c852"><path d="M 0.164062 0.550781 L 17.003906 0.550781 L 17.003906 17.390625 L 0.164062 17.390625 Z M 0.164062 0.550781 " clip-rule="nonzero"/></clipPath><clipPath id="3e0fcca8d9"><path d="M 8 16 L 9 16 L 9 17.390625 L 8 17.390625 Z M 8 16 " clip-rule="nonzero"/></clipPath><clipPath id="20ca5450d4"><path d="M 49 4 L 52.550781 4 L 52.550781 10 L 49 10 Z M 49 4 " clip-rule="nonzero"/></clipPath><clipPath id="7abe2fecb8"><rect x="0" width="53" y="0" height="18"/></clipPath></defs><g transform="matrix(1, 0, 0, 1, 54, 8)"><g clip-path="url(#7abe2fecb8)"><g clip-path="url(#95c4f5c852)"><path fill="#5e17eb" d="M 11.125 6.773438 L 10.847656 6.773438 L 10.847656 1.90625 C 10.847656 1.738281 10.730469 1.597656 10.585938 1.597656 L 6.652344 1.597656 C 6.507812 1.597656 6.390625 1.734375 6.390625 1.90625 L 6.390625 2.015625 C 6.027344 2.136719 5.6875 2.269531 5.34375 2.441406 L 5.34375 1.90625 C 5.34375 1.179688 5.914062 0.550781 6.652344 0.550781 L 10.585938 0.550781 C 11.324219 0.550781 11.894531 1.179688 11.894531 1.90625 L 11.894531 5.726562 L 12.855469 5.726562 L 12.921875 5.824219 C 12.308594 6.113281 11.710938 6.433594 11.125 6.777344 Z M 2.058594 12.277344 L 1.523438 12.277344 C 0.796875 12.277344 0.164062 11.707031 0.164062 10.96875 L 0.164062 7.035156 C 0.164062 6.296875 0.796875 5.726562 1.523438 5.726562 L 5.34375 5.726562 L 5.34375 4.765625 C 5.6875 4.527344 6.003906 4.320312 6.390625 4.140625 L 6.390625 6.773438 L 1.523438 6.773438 C 1.351562 6.773438 1.214844 6.890625 1.214844 7.035156 L 1.214844 10.96875 C 1.214844 11.113281 1.351562 11.230469 1.523438 11.230469 L 1.628906 11.230469 C 1.753906 11.589844 1.890625 11.9375 2.058594 12.277344 Z M 11.894531 15.5625 L 11.894531 16.097656 C 11.894531 16.824219 11.324219 17.457031 10.582031 17.457031 L 6.652344 17.457031 C 6.257812 17.457031 5.910156 17.277344 5.667969 16.992188 C 5.46875 16.757812 5.34375 16.441406 5.34375 16.097656 L 5.34375 12.28125 L 4.382812 12.28125 C 4.144531 11.933594 3.9375 11.621094 3.757812 11.230469 L 6.390625 11.230469 L 6.390625 16.097656 C 6.390625 16.269531 6.507812 16.40625 6.652344 16.40625 L 10.585938 16.40625 C 10.730469 16.40625 10.847656 16.269531 10.847656 16.097656 L 10.847656 15.992188 C 11.207031 15.867188 11.554688 15.734375 11.894531 15.5625 Z M 14.949219 5.515625 C 12.730469 6.664062 9.722656 9.363281 8.265625 11.21875 C 7.417969 10.089844 6.410156 8.71875 5.355469 8 C 6.421875 8.289062 7.292969 8.863281 8.265625 9.296875 C 10.257812 7.753906 12.550781 6.3125 14.949219 5.515625 Z M 8.1875 6.785156 C 8.609375 6.785156 8.953125 7.128906 8.953125 7.554688 C 8.953125 7.976562 8.609375 8.320312 8.1875 8.320312 C 7.761719 8.320312 7.421875 7.976562 7.421875 7.554688 C 7.421875 7.128906 7.761719 6.785156 8.1875 6.785156 Z M 17.070312 7.039062 L 17.070312 10.96875 C 17.070312 11.710938 16.441406 12.28125 15.714844 12.28125 L 11.894531 12.28125 L 11.894531 13.238281 C 11.546875 13.476562 11.234375 13.6875 10.84375 13.863281 L 10.84375 11.230469 L 15.714844 11.230469 C 15.882812 11.230469 16.023438 11.113281 16.023438 10.96875 L 16.023438 7.039062 C 16.023438 6.894531 15.882812 6.777344 15.714844 6.777344 L 15.605469 6.777344 C 15.5 6.46875 15.394531 6.179688 15.253906 5.886719 L 15.546875 5.726562 L 15.714844 5.726562 C 16.441406 5.726562 17.070312 6.296875 17.070312 7.039062 Z M 17.070312 7.039062 " fill-opacity="1" fill-rule="nonzero"/></g><path fill="#5170ff" d="M 13.351562 5.625 C 13.070312 5.230469 12.734375 4.867188 12.363281 4.554688 L 12.363281 3.25 C 13.152344 3.765625 13.832031 4.4375 14.347656 5.222656 C 14.011719 5.347656 13.679688 5.480469 13.351562 5.625 Z M 14.160156 10.761719 C 14.335938 10.207031 14.433594 9.617188 14.433594 9.003906 C 14.433594 8.167969 14.257812 7.378906 13.941406 6.660156 C 14.238281 6.460938 14.539062 6.277344 14.839844 6.105469 C 15.253906 6.984375 15.480469 7.964844 15.480469 9 C 15.480469 9.609375 15.402344 10.199219 15.253906 10.761719 Z M 6.859375 14.546875 C 7.414062 14.722656 8.003906 14.816406 8.617188 14.816406 C 10.402344 14.816406 12 14.011719 13.066406 12.746094 L 14.371094 12.746094 C 13.101562 14.691406 10.949219 15.863281 8.617188 15.863281 C 8.007812 15.863281 7.421875 15.785156 6.859375 15.636719 Z M 3.074219 7.242188 C 2.898438 7.796875 2.804688 8.390625 2.804688 9.003906 C 2.804688 10.789062 3.609375 12.382812 4.875 13.449219 L 4.875 14.753906 C 2.929688 13.484375 1.753906 11.332031 1.753906 9 C 1.753906 8.394531 1.835938 7.804688 1.984375 7.242188 Z M 8.617188 2.140625 C 9.226562 2.140625 9.816406 2.21875 10.378906 2.367188 L 10.378906 3.457031 C 9.824219 3.28125 9.230469 3.1875 8.617188 3.1875 C 6.832031 3.1875 5.238281 3.992188 4.171875 5.257812 L 2.867188 5.257812 C 4.136719 3.308594 6.292969 2.140625 8.617188 2.140625 Z M 8.617188 2.140625 " fill-opacity="1" fill-rule="nonzero"/><g clip-path="url(#3e0fcca8d9)"><path fill="#333333" d="M 8.425781 17.453125 L 8.429688 17.457031 C 8.554688 17.296875 8.683594 17.136719 8.8125 16.976562 C 8.683594 17.132812 8.546875 17.292969 8.425781 17.453125 Z M 8.425781 17.453125 " fill-opacity="1" fill-rule="nonzero"/></g><g fill="#5170ff" fill-opacity="1"><g transform="translate(18.810194, 9.22971)"><g><path d="M 1.515625 0 L 0.375 0 L 0.375 -4.859375 L 1.515625 -4.859375 L 1.515625 -2.9375 L 3.359375 -2.9375 L 3.359375 -4.859375 L 4.5 -4.859375 L 4.5 0 L 3.359375 0 L 3.359375 -1.921875 L 1.515625 -1.921875 Z M 1.515625 0 "/></g></g></g><g fill="#5170ff" fill-opacity="1"><g transform="translate(23.547311, 9.22971)"><g><path d="M 2.078125 0.078125 C 1.703125 0.078125 1.375 0 1.09375 -0.15625 C 0.8125 -0.320312 0.59375 -0.539062 0.4375 -0.8125 C 0.28125 -1.09375 0.203125 -1.414062 0.203125 -1.78125 C 0.203125 -2.007812 0.234375 -2.234375 0.296875 -2.453125 C 0.367188 -2.679688 0.476562 -2.882812 0.625 -3.0625 C 0.78125 -3.25 0.972656 -3.398438 1.203125 -3.515625 C 1.441406 -3.628906 1.722656 -3.6875 2.046875 -3.6875 C 2.285156 -3.6875 2.515625 -3.648438 2.734375 -3.578125 C 2.960938 -3.503906 3.164062 -3.390625 3.34375 -3.234375 C 3.519531 -3.085938 3.660156 -2.890625 3.765625 -2.640625 C 3.867188 -2.398438 3.921875 -2.109375 3.921875 -1.765625 L 3.921875 -1.578125 L 1.328125 -1.578125 C 1.359375 -1.378906 1.414062 -1.222656 1.5 -1.109375 C 1.582031 -1.015625 1.675781 -0.945312 1.78125 -0.90625 C 1.894531 -0.863281 2.015625 -0.84375 2.140625 -0.84375 C 2.304688 -0.84375 2.441406 -0.878906 2.546875 -0.953125 C 2.660156 -1.035156 2.738281 -1.132812 2.78125 -1.25 L 3.859375 -1.25 C 3.796875 -1.007812 3.6875 -0.785156 3.53125 -0.578125 C 3.382812 -0.378906 3.191406 -0.21875 2.953125 -0.09375 C 2.710938 0.0195312 2.421875 0.078125 2.078125 0.078125 Z M 1.359375 -2.328125 L 2.84375 -2.328125 C 2.832031 -2.367188 2.8125 -2.421875 2.78125 -2.484375 C 2.757812 -2.546875 2.722656 -2.601562 2.671875 -2.65625 C 2.585938 -2.726562 2.492188 -2.78125 2.390625 -2.8125 C 2.296875 -2.851562 2.195312 -2.875 2.09375 -2.875 C 1.988281 -2.875 1.882812 -2.851562 1.78125 -2.8125 C 1.6875 -2.78125 1.597656 -2.726562 1.515625 -2.65625 C 1.460938 -2.59375 1.425781 -2.53125 1.40625 -2.46875 C 1.382812 -2.414062 1.367188 -2.367188 1.359375 -2.328125 Z M 1.359375 -2.328125 "/></g></g></g><g fill="#5170ff" fill-opacity="1"><g transform="translate(27.508676, 9.22971)"><g><path d="M 1.390625 0.078125 C 1.171875 0.078125 0.972656 0.0351562 0.796875 -0.046875 C 0.617188 -0.128906 0.472656 -0.25 0.359375 -0.40625 C 0.253906 -0.570312 0.203125 -0.773438 0.203125 -1.015625 C 0.203125 -1.222656 0.242188 -1.394531 0.328125 -1.53125 C 0.421875 -1.675781 0.53125 -1.789062 0.65625 -1.875 C 0.789062 -1.96875 0.929688 -2.03125 1.078125 -2.0625 C 1.234375 -2.101562 1.378906 -2.140625 1.515625 -2.171875 L 2.453125 -2.328125 C 2.429688 -2.515625 2.378906 -2.65625 2.296875 -2.75 C 2.222656 -2.832031 2.101562 -2.875 1.9375 -2.875 C 1.8125 -2.875 1.695312 -2.832031 1.59375 -2.75 C 1.488281 -2.664062 1.425781 -2.550781 1.40625 -2.40625 L 0.34375 -2.40625 C 0.382812 -2.707031 0.484375 -2.953125 0.640625 -3.140625 C 0.804688 -3.328125 1.003906 -3.460938 1.234375 -3.546875 C 1.460938 -3.640625 1.703125 -3.6875 1.953125 -3.6875 C 2.160156 -3.6875 2.359375 -3.65625 2.546875 -3.59375 C 2.742188 -3.539062 2.914062 -3.453125 3.0625 -3.328125 C 3.207031 -3.203125 3.3125 -3.054688 3.375 -2.890625 C 3.4375 -2.722656 3.472656 -2.539062 3.484375 -2.34375 C 3.503906 -2.144531 3.515625 -1.929688 3.515625 -1.703125 L 3.515625 0 L 2.4375 0 L 2.4375 -0.4375 C 2.382812 -0.300781 2.300781 -0.191406 2.1875 -0.109375 C 2.082031 -0.0351562 1.957031 0.0078125 1.8125 0.03125 C 1.675781 0.0625 1.535156 0.078125 1.390625 0.078125 Z M 1.703125 -0.734375 C 1.828125 -0.734375 1.957031 -0.765625 2.09375 -0.828125 C 2.238281 -0.890625 2.335938 -0.976562 2.390625 -1.09375 C 2.441406 -1.21875 2.46875 -1.378906 2.46875 -1.578125 L 1.8125 -1.453125 C 1.695312 -1.429688 1.601562 -1.40625 1.53125 -1.375 C 1.46875 -1.351562 1.414062 -1.320312 1.375 -1.28125 C 1.34375 -1.25 1.316406 -1.210938 1.296875 -1.171875 C 1.285156 -1.140625 1.28125 -1.097656 1.28125 -1.046875 C 1.28125 -0.929688 1.320312 -0.847656 1.40625 -0.796875 C 1.488281 -0.753906 1.585938 -0.734375 1.703125 -0.734375 Z M 1.703125 -0.734375 "/></g></g></g><g fill="#5170ff" fill-opacity="1"><g transform="translate(31.171185, 9.22971)"><g><path d="M 1.875 0 L 1.15625 0 C 0.894531 0 0.691406 -0.0625 0.546875 -0.1875 C 0.398438 -0.3125 0.328125 -0.488281 0.328125 -0.71875 L 0.328125 -4.859375 L 1.40625 -4.859375 L 1.40625 -1.09375 C 1.40625 -0.988281 1.425781 -0.921875 1.46875 -0.890625 C 1.519531 -0.867188 1.566406 -0.859375 1.609375 -0.859375 L 1.875 -0.859375 Z M 1.875 0 "/></g></g></g><g fill="#5170ff" fill-opacity="1"><g transform="translate(33.034205, 9.22971)"><g><path d="M 2.3125 0 L 1.46875 0 C 1.195312 0 0.988281 -0.0625 0.84375 -0.1875 C 0.695312 -0.3125 0.625 -0.488281 0.625 -0.71875 L 0.625 -2.765625 L 0.140625 -2.765625 L 0.140625 -3.609375 L 0.625 -3.609375 L 0.625 -4.859375 L 1.703125 -4.859375 L 1.703125 -3.609375 L 2.328125 -3.609375 L 2.328125 -2.765625 L 1.703125 -2.765625 L 1.703125 -1.078125 C 1.703125 -1.023438 1.710938 -0.972656 1.734375 -0.921875 C 1.765625 -0.878906 1.828125 -0.859375 1.921875 -0.859375 L 2.3125 -0.859375 Z M 2.3125 0 "/></g></g></g><g fill="#5170ff" fill-opacity="1"><g transform="translate(35.405914, 9.22971)"><g><path d="M 1.421875 0 L 0.34375 0 L 0.34375 -4.859375 L 1.421875 -4.859375 L 1.421875 -3.21875 C 1.546875 -3.394531 1.679688 -3.515625 1.828125 -3.578125 C 1.972656 -3.648438 2.144531 -3.6875 2.34375 -3.6875 C 2.582031 -3.6875 2.773438 -3.65625 2.921875 -3.59375 C 3.078125 -3.539062 3.203125 -3.460938 3.296875 -3.359375 C 3.390625 -3.265625 3.457031 -3.164062 3.5 -3.0625 C 3.570312 -2.90625 3.613281 -2.75 3.625 -2.59375 C 3.632812 -2.4375 3.640625 -2.242188 3.640625 -2.015625 L 3.640625 0 L 2.578125 0 L 2.578125 -2.03125 C 2.578125 -2.207031 2.5625 -2.347656 2.53125 -2.453125 C 2.507812 -2.554688 2.472656 -2.632812 2.421875 -2.6875 C 2.335938 -2.78125 2.207031 -2.828125 2.03125 -2.828125 C 1.914062 -2.828125 1.816406 -2.8125 1.734375 -2.78125 C 1.660156 -2.75 1.597656 -2.703125 1.546875 -2.640625 C 1.503906 -2.578125 1.472656 -2.5 1.453125 -2.40625 C 1.429688 -2.3125 1.421875 -2.1875 1.421875 -2.03125 Z M 1.421875 0 "/></g></g></g><g fill="#5170ff" fill-opacity="1"><g transform="translate(39.214672, 9.22971)"><g><path d="M 2.421875 0.109375 C 2.191406 0.109375 1.953125 0.078125 1.703125 0.015625 C 1.453125 -0.0351562 1.21875 -0.125 1 -0.25 C 0.78125 -0.382812 0.597656 -0.566406 0.453125 -0.796875 C 0.304688 -1.023438 0.222656 -1.304688 0.203125 -1.640625 L 1.375 -1.640625 C 1.425781 -1.429688 1.503906 -1.269531 1.609375 -1.15625 C 1.722656 -1.039062 1.847656 -0.957031 1.984375 -0.90625 C 2.128906 -0.863281 2.273438 -0.84375 2.421875 -0.84375 C 2.546875 -0.84375 2.664062 -0.859375 2.78125 -0.890625 C 2.894531 -0.929688 2.988281 -0.992188 3.0625 -1.078125 C 3.132812 -1.160156 3.171875 -1.265625 3.171875 -1.390625 C 3.171875 -1.515625 3.117188 -1.613281 3.015625 -1.6875 C 2.921875 -1.757812 2.789062 -1.816406 2.625 -1.859375 C 2.46875 -1.910156 2.296875 -1.957031 2.109375 -2 C 1.910156 -2.050781 1.703125 -2.101562 1.484375 -2.15625 C 1.273438 -2.21875 1.082031 -2.300781 0.90625 -2.40625 C 0.738281 -2.507812 0.597656 -2.644531 0.484375 -2.8125 C 0.378906 -2.988281 0.328125 -3.207031 0.328125 -3.46875 C 0.328125 -3.800781 0.40625 -4.078125 0.5625 -4.296875 C 0.726562 -4.515625 0.945312 -4.675781 1.21875 -4.78125 C 1.488281 -4.894531 1.789062 -4.953125 2.125 -4.953125 C 2.457031 -4.953125 2.769531 -4.890625 3.0625 -4.765625 C 3.363281 -4.648438 3.613281 -4.472656 3.8125 -4.234375 C 4.019531 -3.992188 4.148438 -3.695312 4.203125 -3.34375 L 3.015625 -3.34375 C 2.960938 -3.550781 2.851562 -3.710938 2.6875 -3.828125 C 2.53125 -3.941406 2.332031 -4 2.09375 -4 C 1.9375 -4 1.789062 -3.960938 1.65625 -3.890625 C 1.519531 -3.828125 1.453125 -3.71875 1.453125 -3.5625 C 1.453125 -3.445312 1.5 -3.351562 1.59375 -3.28125 C 1.6875 -3.207031 1.8125 -3.148438 1.96875 -3.109375 C 2.125 -3.066406 2.296875 -3.023438 2.484375 -2.984375 C 2.679688 -2.929688 2.890625 -2.875 3.109375 -2.8125 C 3.328125 -2.757812 3.523438 -2.675781 3.703125 -2.5625 C 3.890625 -2.457031 4.035156 -2.3125 4.140625 -2.125 C 4.253906 -1.945312 4.3125 -1.71875 4.3125 -1.4375 C 4.3125 -1.125 4.234375 -0.851562 4.078125 -0.625 C 3.929688 -0.394531 3.71875 -0.210938 3.4375 -0.078125 C 3.15625 0.046875 2.816406 0.109375 2.421875 0.109375 Z M 2.421875 0.109375 "/></g></g></g><g fill="#5170ff" fill-opacity="1"><g transform="translate(43.582989, 9.22971)"><g><path d="M 2.09375 0.078125 C 1.71875 0.078125 1.390625 0 1.109375 -0.15625 C 0.828125 -0.3125 0.601562 -0.53125 0.4375 -0.8125 C 0.28125 -1.101562 0.203125 -1.441406 0.203125 -1.828125 C 0.203125 -2.191406 0.28125 -2.515625 0.4375 -2.796875 C 0.601562 -3.078125 0.828125 -3.296875 1.109375 -3.453125 C 1.390625 -3.609375 1.71875 -3.6875 2.09375 -3.6875 C 2.476562 -3.6875 2.8125 -3.609375 3.09375 -3.453125 C 3.375 -3.296875 3.59375 -3.078125 3.75 -2.796875 C 3.914062 -2.515625 4 -2.191406 4 -1.828125 C 4 -1.441406 3.914062 -1.109375 3.75 -0.828125 C 3.59375 -0.546875 3.375 -0.320312 3.09375 -0.15625 C 2.8125 0 2.476562 0.078125 2.09375 0.078125 Z M 2.09375 -0.84375 C 2.34375 -0.84375 2.535156 -0.929688 2.671875 -1.109375 C 2.804688 -1.285156 2.875 -1.523438 2.875 -1.828125 C 2.875 -2.109375 2.804688 -2.332031 2.671875 -2.5 C 2.535156 -2.675781 2.34375 -2.765625 2.09375 -2.765625 C 1.863281 -2.765625 1.671875 -2.675781 1.515625 -2.5 C 1.367188 -2.332031 1.296875 -2.109375 1.296875 -1.828125 C 1.296875 -1.523438 1.367188 -1.285156 1.515625 -1.109375 C 1.671875 -0.929688 1.863281 -0.84375 2.09375 -0.84375 Z M 2.09375 -0.84375 "/></g></g></g><g fill="#5170ff" fill-opacity="1"><g transform="translate(47.620659, 9.22971)"><g><path d="M 1.734375 0 L 0.65625 0 L 0.65625 -2.78125 L 0.140625 -2.78125 L 0.140625 -3.609375 L 0.65625 -3.609375 L 0.65625 -3.953125 C 0.65625 -4.234375 0.742188 -4.453125 0.921875 -4.609375 C 1.097656 -4.773438 1.347656 -4.859375 1.671875 -4.859375 L 2.265625 -4.859375 L 2.265625 -4.03125 L 1.9375 -4.03125 C 1.894531 -4.03125 1.847656 -4.015625 1.796875 -3.984375 C 1.753906 -3.953125 1.734375 -3.890625 1.734375 -3.796875 L 1.734375 -3.609375 L 2.265625 -3.609375 L 2.265625 -2.78125 L 1.734375 -2.78125 Z M 1.734375 0 "/></g></g></g><g clip-path="url(#20ca5450d4)"><g fill="#5170ff" fill-opacity="1"><g transform="translate(49.865195, 9.22971)"><g><path d="M 2.3125 0 L 1.46875 0 C 1.195312 0 0.988281 -0.0625 0.84375 -0.1875 C 0.695312 -0.3125 0.625 -0.488281 0.625 -0.71875 L 0.625 -2.765625 L 0.140625 -2.765625 L 0.140625 -3.609375 L 0.625 -3.609375 L 0.625 -4.859375 L 1.703125 -4.859375 L 1.703125 -3.609375 L 2.328125 -3.609375 L 2.328125 -2.765625 L 1.703125 -2.765625 L 1.703125 -1.078125 C 1.703125 -1.023438 1.710938 -0.972656 1.734375 -0.921875 C 1.765625 -0.878906 1.828125 -0.859375 1.921875 -0.859375 L 2.3125 -0.859375 Z M 2.3125 0 "/></g></g></g></g></g></g></svg>