<svg xmlns="http://www.w3.org/2000/svg" xmlns:xlink="http://www.w3.org/1999/xlink" width="500" zoomAndPan="magnify" viewBox="0 0 375 374.999991" height="500" preserveAspectRatio="xMidYMid meet" version="1.0"><defs><g/><clipPath id="2a3a170553"><path d="M 0 2.351562 L 60.878906 2.351562 L 60.878906 67 L 0 67 Z M 0 2.351562 " clip-rule="nonzero"/></clipPath><clipPath id="dd1aa8de18"><path d="M 20.304688 4.109375 C 23.414062 3.046875 26.972656 2.351562 30.457031 2.351562 C 33.9375 2.351562 37.289062 2.949219 40.378906 4.011719 C 40.445312 4.042969 40.511719 4.042969 40.574219 4.078125 C 52.171875 8.324219 60.714844 19.535156 60.878906 32.40625 L 60.878906 49.652344 C 60.878906 59.175781 53.160156 66.898438 43.632812 66.898438 L 17.234375 66.898438 C 12.664062 66.898438 8.28125 65.082031 5.046875 61.847656 C 1.816406 58.617188 0 54.234375 0 49.664062 L 0 32.429688 C 0.164062 19.46875 8.574219 8.257812 20.304688 4.109375 Z M 20.304688 4.109375 " clip-rule="nonzero"/></clipPath><clipPath id="fd9ebdab8f"><path d="M 0 0.351562 L 60.878906 0.351562 L 60.878906 64.960938 L 0 64.960938 Z M 0 0.351562 " clip-rule="nonzero"/></clipPath><clipPath id="474c9dd482"><path d="M 20.304688 2.109375 C 23.414062 1.046875 26.972656 0.351562 30.457031 0.351562 C 33.9375 0.351562 37.289062 0.949219 40.378906 2.011719 C 40.445312 2.042969 40.511719 2.042969 40.574219 2.078125 C 52.171875 6.324219 60.714844 17.535156 60.878906 30.40625 L 60.878906 47.652344 C 60.878906 57.175781 53.160156 64.898438 43.632812 64.898438 L 17.234375 64.898438 C 12.664062 64.898438 8.28125 63.082031 5.046875 59.847656 C 1.816406 56.617188 0 52.234375 0 47.664062 L 0 30.429688 C 0.164062 17.46875 8.574219 6.257812 20.304688 2.109375 Z M 20.304688 2.109375 " clip-rule="nonzero"/></clipPath><clipPath id="f30e22a0c5"><rect x="0" width="61" y="0" height="65"/></clipPath><clipPath id="a0c1282e55"><path d="M 7 14 L 54 14 L 54 61 L 7 61 Z M 7 14 " clip-rule="nonzero"/></clipPath><clipPath id="3701fcf042"><path d="M 30.21875 14.800781 L 53.105469 38.820312 L 30.660156 60.203125 L 7.777344 36.179688 Z M 30.21875 14.800781 " clip-rule="nonzero"/></clipPath><clipPath id="d6730eb3db"><path d="M 30.4375 37.402344 C 23.746094 43 14.003906 42.433594 7.777344 36.179688 C 13.890625 30.550781 23.679688 31.070312 30.4375 37.402344 Z M 30.4375 37.402344 C 36.484375 44.511719 36.53125 54.316406 30.660156 60.199219 C 24.667969 53.625 24.523438 43.816406 30.4375 37.402344 Z M 30.21875 14.800781 C 36.210938 21.277344 36.304688 31.035156 30.4375 37.402344 C 24.441406 30.34375 24.347656 20.585938 30.21875 14.800781 Z M 53.101562 38.820312 C 46.988281 44.351562 37.246094 43.785156 30.4375 37.402344 C 37.082031 31.851562 46.871094 32.46875 53.101562 38.820312 Z M 53.101562 38.820312 " clip-rule="nonzero"/></clipPath><clipPath id="8539bb9090"><path d="M 0.679688 0.640625 L 46.28125 0.640625 L 46.28125 46.238281 L 0.679688 46.238281 Z M 0.679688 0.640625 " clip-rule="nonzero"/></clipPath><clipPath id="01494cb171"><path d="M 23.21875 0.800781 L 46.105469 24.820312 L 23.660156 46.203125 L 0.777344 22.179688 Z M 23.21875 0.800781 " clip-rule="nonzero"/></clipPath><clipPath id="94ff3f3149"><path d="M 23.4375 23.402344 C 16.746094 29 7.003906 28.433594 0.777344 22.179688 C 6.890625 16.550781 16.679688 17.070312 23.4375 23.402344 Z M 23.4375 23.402344 C 29.484375 30.511719 29.53125 40.316406 23.660156 46.199219 C 17.667969 39.625 17.523438 29.816406 23.4375 23.402344 Z M 23.21875 0.800781 C 29.210938 7.277344 29.304688 17.035156 23.4375 23.402344 C 17.441406 16.34375 17.347656 6.585938 23.21875 0.800781 Z M 46.101562 24.820312 C 39.988281 30.351562 30.246094 29.785156 23.4375 23.402344 C 30.082031 17.851562 39.871094 18.46875 46.101562 24.820312 Z M 46.101562 24.820312 " clip-rule="nonzero"/></clipPath><clipPath id="c302820265"><rect x="0" width="47" y="0" height="47"/></clipPath><clipPath id="d8f6e96460"><path d="M 57.597656 2.351562 L 64.160156 2.351562 L 64.160156 8.917969 L 57.597656 8.917969 Z M 57.597656 2.351562 " clip-rule="nonzero"/></clipPath><clipPath id="ff0e9f8f6d"><path d="M 60.878906 2.351562 C 59.066406 2.351562 57.597656 3.820312 57.597656 5.632812 C 57.597656 7.445312 59.066406 8.917969 60.878906 8.917969 C 62.691406 8.917969 64.160156 7.445312 64.160156 5.632812 C 64.160156 3.820312 62.691406 2.351562 60.878906 2.351562 Z M 60.878906 2.351562 " clip-rule="nonzero"/></clipPath><clipPath id="9c860465e1"><path d="M 0.597656 0.351562 L 7.160156 0.351562 L 7.160156 6.917969 L 0.597656 6.917969 Z M 0.597656 0.351562 " clip-rule="nonzero"/></clipPath><clipPath id="db661617ee"><path d="M 3.878906 0.351562 C 2.066406 0.351562 0.597656 1.820312 0.597656 3.632812 C 0.597656 5.445312 2.066406 6.917969 3.878906 6.917969 C 5.691406 6.917969 7.160156 5.445312 7.160156 3.632812 C 7.160156 1.820312 5.691406 0.351562 3.878906 0.351562 Z M 3.878906 0.351562 " clip-rule="nonzero"/></clipPath><clipPath id="8e5ccef60a"><rect x="0" width="8" y="0" height="7"/></clipPath></defs><g clip-path="url(#2a3a170553)"><g clip-path="url(#dd1aa8de18)"><g transform="matrix(1, 0, 0, 1, 0, 2)"><g clip-path="url(#f30e22a0c5)"><g clip-path="url(#fd9ebdab8f)"><g clip-path="url(#474c9dd482)"><path fill="#5170ff" d="M 0 0.351562 L 60.878906 0.351562 L 60.878906 64.800781 L 0 64.800781 Z M 0 0.351562 " fill-opacity="1" fill-rule="nonzero"/></g></g></g></g></g></g><g clip-path="url(#a0c1282e55)"><g clip-path="url(#3701fcf042)"><g clip-path="url(#d6730eb3db)"><g transform="matrix(1, 0, 0, 1, 7, 14)"><g clip-path="url(#c302820265)"><g clip-path="url(#8539bb9090)"><g clip-path="url(#01494cb171)"><g clip-path="url(#94ff3f3149)"><path fill="#ffffff" d="M 23.21875 0.800781 L 46.105469 24.820312 L 23.660156 46.203125 L 0.777344 22.179688 Z M 23.21875 0.800781 " fill-opacity="1" fill-rule="nonzero"/></g></g></g></g></g></g></g></g><g clip-path="url(#d8f6e96460)"><g clip-path="url(#ff0e9f8f6d)"><g transform="matrix(1, 0, 0, 1, 57, 2)"><g clip-path="url(#8e5ccef60a)"><g clip-path="url(#9c860465e1)"><g clip-path="url(#db661617ee)"><path fill="#5170ff" d="M 0.597656 0.351562 L 7.160156 0.351562 L 7.160156 6.917969 L 0.597656 6.917969 Z M 0.597656 0.351562 " fill-opacity="1" fill-rule="nonzero"/></g></g></g></g></g></g><g fill="#5e17eb" fill-opacity="1"><g transform="translate(67.834426, 45.352491)"><g><path d="M 17.703125 -14.234375 L 17.703125 -22.828125 L 22.203125 -22.828125 L 22.203125 0 L 17.703125 0 L 17.703125 -10.390625 L 7.484375 -10.390625 L 7.484375 0 L 2.96875 0 L 2.96875 -22.828125 L 7.484375 -22.828125 L 7.484375 -14.234375 Z M 17.703125 -14.234375 "/></g></g></g><g fill="#5e17eb" fill-opacity="1"><g transform="translate(93.003713, 45.352491)"><g><path d="M 17.015625 -7.640625 L 5.953125 -7.640625 C 6.078125 -6.140625 6.5 -5.046875 7.21875 -4.359375 C 7.945312 -3.679688 8.941406 -3.34375 10.203125 -3.34375 C 11.191406 -3.34375 11.992188 -3.523438 12.609375 -3.890625 C 13.222656 -4.265625 13.71875 -4.828125 14.09375 -5.578125 L 14.421875 -5.578125 L 17.296875 -3.734375 C 16.734375 -2.523438 15.882812 -1.546875 14.75 -0.796875 C 13.613281 -0.046875 12.097656 0.328125 10.203125 0.328125 C 8.429688 0.328125 6.894531 -0.0078125 5.59375 -0.6875 C 4.300781 -1.363281 3.300781 -2.367188 2.59375 -3.703125 C 1.894531 -5.046875 1.546875 -6.675781 1.546875 -8.59375 C 1.546875 -10.550781 1.914062 -12.203125 2.65625 -13.546875 C 3.394531 -14.890625 4.394531 -15.890625 5.65625 -16.546875 C 6.914062 -17.210938 8.328125 -17.546875 9.890625 -17.546875 C 12.328125 -17.546875 14.191406 -16.898438 15.484375 -15.609375 C 16.785156 -14.316406 17.4375 -12.421875 17.4375 -9.921875 C 17.4375 -9.015625 17.40625 -8.316406 17.34375 -7.828125 Z M 13.296875 -10.421875 C 13.253906 -11.734375 12.945312 -12.6875 12.375 -13.28125 C 11.8125 -13.882812 10.984375 -14.1875 9.890625 -14.1875 C 7.710938 -14.1875 6.429688 -12.929688 6.046875 -10.421875 Z M 13.296875 -10.421875 "/></g></g></g><g fill="#5e17eb" fill-opacity="1"><g transform="translate(111.712936, 45.352491)"><g><path d="M 6.71875 0.328125 C 5.613281 0.328125 4.65625 0.125 3.84375 -0.28125 C 3.03125 -0.6875 2.40625 -1.28125 1.96875 -2.0625 C 1.53125 -2.851562 1.3125 -3.800781 1.3125 -4.90625 C 1.3125 -5.925781 1.53125 -6.78125 1.96875 -7.46875 C 2.40625 -8.15625 3.082031 -8.71875 4 -9.15625 C 4.914062 -9.601562 6.113281 -9.945312 7.59375 -10.1875 C 8.613281 -10.351562 9.390625 -10.535156 9.921875 -10.734375 C 10.460938 -10.929688 10.828125 -11.15625 11.015625 -11.40625 C 11.203125 -11.65625 11.296875 -11.972656 11.296875 -12.359375 C 11.296875 -12.910156 11.101562 -13.332031 10.71875 -13.625 C 10.332031 -13.914062 9.691406 -14.0625 8.796875 -14.0625 C 7.847656 -14.0625 6.941406 -13.847656 6.078125 -13.421875 C 5.210938 -12.992188 4.460938 -12.429688 3.828125 -11.734375 L 3.515625 -11.734375 L 1.703125 -14.46875 C 2.578125 -15.4375 3.644531 -16.191406 4.90625 -16.734375 C 6.164062 -17.273438 7.535156 -17.546875 9.015625 -17.546875 C 11.296875 -17.546875 12.945312 -17.0625 13.96875 -16.09375 C 14.988281 -15.125 15.5 -13.75 15.5 -11.96875 L 15.5 -4.5 C 15.5 -3.726562 15.835938 -3.34375 16.515625 -3.34375 C 16.773438 -3.34375 17.03125 -3.390625 17.28125 -3.484375 L 17.5 -3.421875 L 17.8125 -0.40625 C 17.570312 -0.25 17.238281 -0.117188 16.8125 -0.015625 C 16.382812 0.078125 15.914062 0.125 15.40625 0.125 C 14.375 0.125 13.566406 -0.0703125 12.984375 -0.46875 C 12.410156 -0.863281 12 -1.484375 11.75 -2.328125 L 11.421875 -2.359375 C 10.578125 -0.566406 9.007812 0.328125 6.71875 0.328125 Z M 8.078125 -2.90625 C 9.078125 -2.90625 9.875 -3.238281 10.46875 -3.90625 C 11.070312 -4.582031 11.375 -5.519531 11.375 -6.71875 L 11.375 -8.453125 L 11.078125 -8.515625 C 10.816406 -8.304688 10.472656 -8.132812 10.046875 -8 C 9.628906 -7.863281 9.023438 -7.726562 8.234375 -7.59375 C 7.304688 -7.4375 6.632812 -7.164062 6.21875 -6.78125 C 5.8125 -6.40625 5.609375 -5.867188 5.609375 -5.171875 C 5.609375 -4.429688 5.828125 -3.867188 6.265625 -3.484375 C 6.703125 -3.097656 7.304688 -2.90625 8.078125 -2.90625 Z M 8.078125 -2.90625 "/></g></g></g><g fill="#5e17eb" fill-opacity="1"><g transform="translate(129.860415, 45.352491)"><g><path d="M 7.15625 0.328125 C 5.601562 0.328125 4.414062 -0.0859375 3.59375 -0.921875 C 2.78125 -1.765625 2.375 -3.039062 2.375 -4.75 L 2.375 -24.125 L 6.703125 -24.125 L 6.703125 -4.921875 C 6.703125 -3.867188 7.132812 -3.34375 8 -3.34375 C 8.25 -3.34375 8.515625 -3.382812 8.796875 -3.46875 L 9.015625 -3.40625 L 9.40625 -0.078125 C 9.164062 0.046875 8.847656 0.144531 8.453125 0.21875 C 8.066406 0.289062 7.632812 0.328125 7.15625 0.328125 Z M 7.15625 0.328125 "/></g></g></g><g fill="#5e17eb" fill-opacity="1"><g transform="translate(139.753363, 45.352491)"><g><path d="M 11.875 -4.109375 L 13 -0.90625 C 12.53125 -0.519531 11.941406 -0.21875 11.234375 0 C 10.523438 0.21875 9.722656 0.328125 8.828125 0.328125 C 6.972656 0.328125 5.5625 -0.175781 4.59375 -1.1875 C 3.625 -2.207031 3.140625 -3.6875 3.140625 -5.625 L 3.140625 -13.796875 L 0.515625 -13.796875 L 0.515625 -17.234375 L 3.140625 -17.234375 L 3.140625 -20.59375 L 7.46875 -21.296875 L 7.46875 -17.234375 L 12.34375 -17.234375 L 12.34375 -13.796875 L 7.46875 -13.796875 L 7.46875 -5.9375 C 7.46875 -5.082031 7.640625 -4.457031 7.984375 -4.0625 C 8.335938 -3.675781 8.851562 -3.484375 9.53125 -3.484375 C 10.300781 -3.484375 10.972656 -3.691406 11.546875 -4.109375 Z M 11.875 -4.109375 "/></g></g></g><g fill="#5e17eb" fill-opacity="1"><g transform="translate(153.126012, 45.352491)"><g><path d="M 2.484375 0 L 2.484375 -24.125 L 6.8125 -24.125 L 6.8125 -14.96875 L 7.140625 -14.90625 C 7.710938 -15.75 8.410156 -16.398438 9.234375 -16.859375 C 10.066406 -17.316406 11.070312 -17.546875 12.25 -17.546875 C 16.050781 -17.546875 17.953125 -15.390625 17.953125 -11.078125 L 17.953125 0 L 13.625 0 L 13.625 -10.53125 C 13.625 -11.707031 13.390625 -12.5625 12.921875 -13.09375 C 12.453125 -13.625 11.722656 -13.890625 10.734375 -13.890625 C 9.523438 -13.890625 8.566406 -13.484375 7.859375 -12.671875 C 7.160156 -11.867188 6.8125 -10.613281 6.8125 -8.90625 L 6.8125 0 Z M 2.484375 0 "/></g></g></g><g fill="#5e17eb" fill-opacity="1"><g transform="translate(173.286404, 45.352491)"><g><path d="M 10.109375 0.328125 C 8.535156 0.328125 7.128906 0.132812 5.890625 -0.25 C 4.660156 -0.644531 3.632812 -1.160156 2.8125 -1.796875 C 1.988281 -2.429688 1.359375 -3.128906 0.921875 -3.890625 L 3.40625 -6.921875 L 3.796875 -6.921875 C 4.484375 -5.898438 5.351562 -5.085938 6.40625 -4.484375 C 7.46875 -3.878906 8.703125 -3.578125 10.109375 -3.578125 C 11.316406 -3.578125 12.226562 -3.832031 12.84375 -4.34375 C 13.457031 -4.851562 13.765625 -5.554688 13.765625 -6.453125 C 13.765625 -6.992188 13.664062 -7.441406 13.46875 -7.796875 C 13.269531 -8.160156 12.941406 -8.472656 12.484375 -8.734375 C 12.023438 -8.992188 11.40625 -9.21875 10.625 -9.40625 L 7.703125 -10.078125 C 5.648438 -10.546875 4.117188 -11.320312 3.109375 -12.40625 C 2.109375 -13.5 1.609375 -14.914062 1.609375 -16.65625 C 1.609375 -17.945312 1.929688 -19.082031 2.578125 -20.0625 C 3.222656 -21.039062 4.160156 -21.800781 5.390625 -22.34375 C 6.628906 -22.882812 8.101562 -23.15625 9.8125 -23.15625 C 11.570312 -23.15625 13.078125 -22.921875 14.328125 -22.453125 C 15.585938 -21.992188 16.648438 -21.285156 17.515625 -20.328125 L 15.28125 -17.265625 L 14.890625 -17.265625 C 14.242188 -17.941406 13.503906 -18.445312 12.671875 -18.78125 C 11.835938 -19.125 10.882812 -19.296875 9.8125 -19.296875 C 8.582031 -19.296875 7.644531 -19.078125 7 -18.640625 C 6.351562 -18.203125 6.03125 -17.597656 6.03125 -16.828125 C 6.03125 -16.109375 6.253906 -15.535156 6.703125 -15.109375 C 7.160156 -14.679688 7.941406 -14.347656 9.046875 -14.109375 L 12.046875 -13.484375 C 14.265625 -13.015625 15.875 -12.21875 16.875 -11.09375 C 17.875 -9.976562 18.375 -8.523438 18.375 -6.734375 C 18.375 -5.304688 18.066406 -4.0625 17.453125 -3 C 16.835938 -1.945312 15.910156 -1.128906 14.671875 -0.546875 C 13.429688 0.0351562 11.910156 0.328125 10.109375 0.328125 Z M 10.109375 0.328125 "/></g></g></g><g fill="#5e17eb" fill-opacity="1"><g transform="translate(192.885051, 45.352491)"><g><path d="M 10 0.328125 C 8.320312 0.328125 6.84375 -0.015625 5.5625 -0.703125 C 4.289062 -1.398438 3.300781 -2.414062 2.59375 -3.75 C 1.894531 -5.09375 1.546875 -6.707031 1.546875 -8.59375 C 1.546875 -10.488281 1.894531 -12.109375 2.59375 -13.453125 C 3.300781 -14.796875 4.289062 -15.8125 5.5625 -16.5 C 6.84375 -17.195312 8.320312 -17.546875 10 -17.546875 C 11.6875 -17.546875 13.164062 -17.195312 14.4375 -16.5 C 15.71875 -15.8125 16.710938 -14.796875 17.421875 -13.453125 C 18.128906 -12.109375 18.484375 -10.488281 18.484375 -8.59375 C 18.484375 -6.707031 18.128906 -5.09375 17.421875 -3.75 C 16.710938 -2.414062 15.71875 -1.398438 14.4375 -0.703125 C 13.164062 -0.015625 11.6875 0.328125 10 0.328125 Z M 10 -3.34375 C 12.675781 -3.34375 14.015625 -5.09375 14.015625 -8.59375 C 14.015625 -10.414062 13.671875 -11.75 12.984375 -12.59375 C 12.296875 -13.445312 11.300781 -13.875 10 -13.875 C 7.332031 -13.875 6 -12.113281 6 -8.59375 C 6 -5.09375 7.332031 -3.34375 10 -3.34375 Z M 10 -3.34375 "/></g></g></g><g fill="#5e17eb" fill-opacity="1"><g transform="translate(212.889402, 45.352491)"><g><path d="M 3.015625 0 L 3.015625 -13.796875 L 0.578125 -13.796875 L 0.578125 -17.234375 L 3.015625 -17.234375 C 2.835938 -17.960938 2.75 -18.644531 2.75 -19.28125 C 2.75 -20.375 3 -21.304688 3.5 -22.078125 C 4 -22.859375 4.71875 -23.445312 5.65625 -23.84375 C 6.59375 -24.25 7.703125 -24.453125 8.984375 -24.453125 C 10.890625 -24.453125 12.3125 -24.128906 13.25 -23.484375 L 12.234375 -20.296875 L 11.90625 -20.234375 C 11.257812 -20.691406 10.429688 -20.921875 9.421875 -20.921875 C 8.640625 -20.921875 8.054688 -20.726562 7.671875 -20.34375 C 7.285156 -19.96875 7.09375 -19.453125 7.09375 -18.796875 C 7.09375 -18.515625 7.109375 -18.253906 7.140625 -18.015625 C 7.179688 -17.785156 7.25 -17.523438 7.34375 -17.234375 L 12.25 -17.234375 L 12.25 -13.796875 L 7.34375 -13.796875 L 7.34375 0 Z M 3.015625 0 "/></g></g></g><g fill="#5e17eb" fill-opacity="1"><g transform="translate(225.762825, 45.352491)"><g><path d="M 11.875 -4.109375 L 13 -0.90625 C 12.53125 -0.519531 11.941406 -0.21875 11.234375 0 C 10.523438 0.21875 9.722656 0.328125 8.828125 0.328125 C 6.972656 0.328125 5.5625 -0.175781 4.59375 -1.1875 C 3.625 -2.207031 3.140625 -3.6875 3.140625 -5.625 L 3.140625 -13.796875 L 0.515625 -13.796875 L 0.515625 -17.234375 L 3.140625 -17.234375 L 3.140625 -20.59375 L 7.46875 -21.296875 L 7.46875 -17.234375 L 12.34375 -17.234375 L 12.34375 -13.796875 L 7.46875 -13.796875 L 7.46875 -5.9375 C 7.46875 -5.082031 7.640625 -4.457031 7.984375 -4.0625 C 8.335938 -3.675781 8.851562 -3.484375 9.53125 -3.484375 C 10.300781 -3.484375 10.972656 -3.691406 11.546875 -4.109375 Z M 11.875 -4.109375 "/></g></g></g><g fill="#5e17eb" fill-opacity="1"><g transform="translate(66.4938, 64.855873)"><g><path d="M 4.40625 -9.28125 C 5.34375 -9.28125 6.148438 -9.109375 6.828125 -8.765625 C 7.503906 -8.429688 8.023438 -7.921875 8.390625 -7.234375 C 8.753906 -6.546875 8.9375 -5.679688 8.9375 -4.640625 C 8.9375 -3.597656 8.753906 -2.734375 8.390625 -2.046875 C 8.023438 -1.359375 7.503906 -0.84375 6.828125 -0.5 C 6.148438 -0.164062 5.34375 0 4.40625 0 L 1.40625 0 L 1.40625 -9.28125 Z M 4.296875 -0.921875 C 5.066406 -0.921875 5.707031 -1.039062 6.21875 -1.28125 C 6.726562 -1.53125 7.113281 -1.925781 7.375 -2.46875 C 7.632812 -3.007812 7.765625 -3.734375 7.765625 -4.640625 C 7.765625 -5.546875 7.632812 -6.269531 7.375 -6.8125 C 7.113281 -7.351562 6.726562 -7.742188 6.21875 -7.984375 C 5.707031 -8.234375 5.066406 -8.359375 4.296875 -8.359375 L 2.5 -8.359375 L 2.5 -0.921875 Z M 4.296875 -0.921875 "/></g></g></g><g fill="#5e17eb" fill-opacity="1"><g transform="translate(76.355093, 64.855873)"><g><path d="M 2.890625 0.140625 C 2.203125 0.140625 1.660156 -0.0390625 1.265625 -0.40625 C 0.878906 -0.769531 0.6875 -1.285156 0.6875 -1.953125 C 0.6875 -2.367188 0.769531 -2.71875 0.9375 -3 C 1.113281 -3.28125 1.378906 -3.507812 1.734375 -3.6875 C 2.097656 -3.875 2.570312 -4.015625 3.15625 -4.109375 C 3.664062 -4.191406 4.050781 -4.285156 4.3125 -4.390625 C 4.570312 -4.503906 4.75 -4.625 4.84375 -4.75 C 4.9375 -4.882812 4.984375 -5.050781 4.984375 -5.25 C 4.984375 -5.5625 4.875 -5.800781 4.65625 -5.96875 C 4.4375 -6.144531 4.085938 -6.234375 3.609375 -6.234375 C 3.148438 -6.234375 2.757812 -6.144531 2.4375 -5.96875 C 2.113281 -5.789062 1.816406 -5.53125 1.546875 -5.1875 L 1.421875 -5.1875 L 0.921875 -5.90625 C 1.210938 -6.28125 1.585938 -6.578125 2.046875 -6.796875 C 2.503906 -7.023438 3.023438 -7.140625 3.609375 -7.140625 C 4.429688 -7.140625 5.035156 -6.957031 5.421875 -6.59375 C 5.816406 -6.226562 6.015625 -5.726562 6.015625 -5.09375 L 6.015625 -1.375 C 6.015625 -0.988281 6.179688 -0.796875 6.515625 -0.796875 C 6.617188 -0.796875 6.722656 -0.8125 6.828125 -0.84375 L 6.921875 -0.828125 L 7.046875 -0.109375 C 6.960938 -0.0546875 6.859375 -0.0195312 6.734375 0 C 6.609375 0.03125 6.484375 0.046875 6.359375 0.046875 C 5.972656 0.046875 5.679688 -0.0351562 5.484375 -0.203125 C 5.285156 -0.367188 5.160156 -0.617188 5.109375 -0.953125 L 4.96875 -0.96875 C 4.769531 -0.59375 4.5 -0.3125 4.15625 -0.125 C 3.820312 0.0507812 3.398438 0.140625 2.890625 0.140625 Z M 3.109375 -0.6875 C 3.503906 -0.6875 3.84375 -0.773438 4.125 -0.953125 C 4.414062 -1.140625 4.632812 -1.394531 4.78125 -1.71875 C 4.9375 -2.039062 5.015625 -2.414062 5.015625 -2.84375 L 5.015625 -3.734375 L 4.890625 -3.765625 C 4.734375 -3.648438 4.539062 -3.554688 4.3125 -3.484375 C 4.09375 -3.410156 3.785156 -3.34375 3.390625 -3.28125 C 2.984375 -3.226562 2.660156 -3.144531 2.421875 -3.03125 C 2.179688 -2.914062 2.007812 -2.769531 1.90625 -2.59375 C 1.800781 -2.425781 1.75 -2.210938 1.75 -1.953125 C 1.75 -1.535156 1.867188 -1.21875 2.109375 -1 C 2.347656 -0.789062 2.679688 -0.6875 3.109375 -0.6875 Z M 3.109375 -0.6875 "/></g></g></g><g fill="#5e17eb" fill-opacity="1"><g transform="translate(83.595598, 64.855873)"><g><path d="M 3.1875 0.140625 C 2.75 0.140625 2.34375 0.0820312 1.96875 -0.03125 C 1.59375 -0.15625 1.273438 -0.316406 1.015625 -0.515625 C 0.765625 -0.722656 0.582031 -0.953125 0.46875 -1.203125 L 1.078125 -1.84375 L 1.21875 -1.84375 C 1.445312 -1.5 1.722656 -1.238281 2.046875 -1.0625 C 2.367188 -0.882812 2.75 -0.796875 3.1875 -0.796875 C 3.707031 -0.796875 4.101562 -0.894531 4.375 -1.09375 C 4.644531 -1.289062 4.78125 -1.570312 4.78125 -1.9375 C 4.78125 -2.207031 4.695312 -2.429688 4.53125 -2.609375 C 4.363281 -2.796875 4.097656 -2.929688 3.734375 -3.015625 L 2.5625 -3.3125 C 1.925781 -3.46875 1.460938 -3.707031 1.171875 -4.03125 C 0.890625 -4.363281 0.75 -4.773438 0.75 -5.265625 C 0.75 -5.640625 0.84375 -5.96875 1.03125 -6.25 C 1.226562 -6.53125 1.507812 -6.75 1.875 -6.90625 C 2.238281 -7.0625 2.675781 -7.140625 3.1875 -7.140625 C 3.820312 -7.140625 4.320312 -7.046875 4.6875 -6.859375 C 5.0625 -6.679688 5.351562 -6.429688 5.5625 -6.109375 L 4.984375 -5.546875 L 4.859375 -5.546875 C 4.628906 -5.796875 4.378906 -5.976562 4.109375 -6.09375 C 3.847656 -6.207031 3.539062 -6.265625 3.1875 -6.265625 C 2.71875 -6.265625 2.359375 -6.179688 2.109375 -6.015625 C 1.867188 -5.859375 1.75 -5.625 1.75 -5.3125 C 1.75 -5.019531 1.832031 -4.785156 2 -4.609375 C 2.175781 -4.441406 2.484375 -4.304688 2.921875 -4.203125 L 4.078125 -3.921875 C 4.691406 -3.773438 5.132812 -3.535156 5.40625 -3.203125 C 5.675781 -2.867188 5.8125 -2.453125 5.8125 -1.953125 C 5.8125 -1.535156 5.710938 -1.171875 5.515625 -0.859375 C 5.316406 -0.546875 5.019531 -0.300781 4.625 -0.125 C 4.238281 0.0507812 3.757812 0.140625 3.1875 0.140625 Z M 3.1875 0.140625 "/></g></g></g><g fill="#5e17eb" fill-opacity="1"><g transform="translate(90.068261, 64.855873)"><g><path d="M 1.21875 0 L 1.21875 -9.8125 L 2.25 -9.8125 L 2.25 -6 L 2.390625 -5.984375 C 2.890625 -6.753906 3.609375 -7.140625 4.546875 -7.140625 C 5.390625 -7.140625 6 -6.921875 6.375 -6.484375 C 6.757812 -6.054688 6.953125 -5.394531 6.953125 -4.5 L 6.953125 0 L 5.921875 0 L 5.921875 -4.484375 C 5.921875 -4.898438 5.863281 -5.238281 5.75 -5.5 C 5.644531 -5.757812 5.476562 -5.945312 5.25 -6.0625 C 5.019531 -6.175781 4.722656 -6.234375 4.359375 -6.234375 C 3.722656 -6.234375 3.210938 -6.023438 2.828125 -5.609375 C 2.441406 -5.203125 2.25 -4.53125 2.25 -3.59375 L 2.25 0 Z M 1.21875 0 "/></g></g></g><g fill="#5e17eb" fill-opacity="1"><g transform="translate(98.127362, 64.855873)"><g><path d="M 4.65625 0.140625 C 4.132812 0.140625 3.679688 0.0390625 3.296875 -0.15625 C 2.910156 -0.363281 2.609375 -0.632812 2.390625 -0.96875 L 2.25 -0.9375 L 2.25 0 L 1.21875 0 L 1.21875 -9.8125 L 2.25 -9.8125 L 2.25 -5.953125 L 2.390625 -5.921875 C 2.921875 -6.734375 3.691406 -7.140625 4.703125 -7.140625 C 5.285156 -7.140625 5.789062 -7.003906 6.21875 -6.734375 C 6.65625 -6.460938 6.988281 -6.054688 7.21875 -5.515625 C 7.457031 -4.972656 7.578125 -4.300781 7.578125 -3.5 C 7.578125 -2.695312 7.453125 -2.023438 7.203125 -1.484375 C 6.953125 -0.941406 6.609375 -0.535156 6.171875 -0.265625 C 5.734375 0.00390625 5.226562 0.140625 4.65625 0.140625 Z M 4.40625 -0.796875 C 5.800781 -0.796875 6.5 -1.695312 6.5 -3.5 C 6.5 -4.4375 6.316406 -5.117188 5.953125 -5.546875 C 5.585938 -5.984375 5.070312 -6.203125 4.40625 -6.203125 C 3.75 -6.203125 3.222656 -5.976562 2.828125 -5.53125 C 2.441406 -5.09375 2.25 -4.414062 2.25 -3.5 C 2.25 -2.59375 2.441406 -1.914062 2.828125 -1.46875 C 3.222656 -1.019531 3.75 -0.796875 4.40625 -0.796875 Z M 4.40625 -0.796875 "/></g></g></g><g fill="#5e17eb" fill-opacity="1"><g transform="translate(106.478367, 64.855873)"><g><path d="M 4.015625 0.140625 C 3.359375 0.140625 2.785156 0 2.296875 -0.28125 C 1.804688 -0.5625 1.425781 -0.972656 1.15625 -1.515625 C 0.894531 -2.066406 0.765625 -2.726562 0.765625 -3.5 C 0.765625 -4.269531 0.894531 -4.925781 1.15625 -5.46875 C 1.425781 -6.019531 1.804688 -6.4375 2.296875 -6.71875 C 2.785156 -7 3.359375 -7.140625 4.015625 -7.140625 C 4.679688 -7.140625 5.253906 -7 5.734375 -6.71875 C 6.222656 -6.4375 6.597656 -6.019531 6.859375 -5.46875 C 7.128906 -4.925781 7.265625 -4.269531 7.265625 -3.5 C 7.265625 -2.726562 7.128906 -2.066406 6.859375 -1.515625 C 6.597656 -0.972656 6.222656 -0.5625 5.734375 -0.28125 C 5.253906 0 4.679688 0.140625 4.015625 0.140625 Z M 4.015625 -0.796875 C 4.710938 -0.796875 5.242188 -1.015625 5.609375 -1.453125 C 5.984375 -1.890625 6.171875 -2.570312 6.171875 -3.5 C 6.171875 -4.425781 5.984375 -5.109375 5.609375 -5.546875 C 5.242188 -5.984375 4.710938 -6.203125 4.015625 -6.203125 C 3.316406 -6.203125 2.78125 -5.976562 2.40625 -5.53125 C 2.039062 -5.09375 1.859375 -4.414062 1.859375 -3.5 C 1.859375 -2.570312 2.039062 -1.890625 2.40625 -1.453125 C 2.78125 -1.015625 3.316406 -0.796875 4.015625 -0.796875 Z M 4.015625 -0.796875 "/></g></g></g><g fill="#5e17eb" fill-opacity="1"><g transform="translate(114.512085, 64.855873)"><g><path d="M 2.890625 0.140625 C 2.203125 0.140625 1.660156 -0.0390625 1.265625 -0.40625 C 0.878906 -0.769531 0.6875 -1.285156 0.6875 -1.953125 C 0.6875 -2.367188 0.769531 -2.71875 0.9375 -3 C 1.113281 -3.28125 1.378906 -3.507812 1.734375 -3.6875 C 2.097656 -3.875 2.570312 -4.015625 3.15625 -4.109375 C 3.664062 -4.191406 4.050781 -4.285156 4.3125 -4.390625 C 4.570312 -4.503906 4.75 -4.625 4.84375 -4.75 C 4.9375 -4.882812 4.984375 -5.050781 4.984375 -5.25 C 4.984375 -5.5625 4.875 -5.800781 4.65625 -5.96875 C 4.4375 -6.144531 4.085938 -6.234375 3.609375 -6.234375 C 3.148438 -6.234375 2.757812 -6.144531 2.4375 -5.96875 C 2.113281 -5.789062 1.816406 -5.53125 1.546875 -5.1875 L 1.421875 -5.1875 L 0.921875 -5.90625 C 1.210938 -6.28125 1.585938 -6.578125 2.046875 -6.796875 C 2.503906 -7.023438 3.023438 -7.140625 3.609375 -7.140625 C 4.429688 -7.140625 5.035156 -6.957031 5.421875 -6.59375 C 5.816406 -6.226562 6.015625 -5.726562 6.015625 -5.09375 L 6.015625 -1.375 C 6.015625 -0.988281 6.179688 -0.796875 6.515625 -0.796875 C 6.617188 -0.796875 6.722656 -0.8125 6.828125 -0.84375 L 6.921875 -0.828125 L 7.046875 -0.109375 C 6.960938 -0.0546875 6.859375 -0.0195312 6.734375 0 C 6.609375 0.03125 6.484375 0.046875 6.359375 0.046875 C 5.972656 0.046875 5.679688 -0.0351562 5.484375 -0.203125 C 5.285156 -0.367188 5.160156 -0.617188 5.109375 -0.953125 L 4.96875 -0.96875 C 4.769531 -0.59375 4.5 -0.3125 4.15625 -0.125 C 3.820312 0.0507812 3.398438 0.140625 2.890625 0.140625 Z M 3.109375 -0.6875 C 3.503906 -0.6875 3.84375 -0.773438 4.125 -0.953125 C 4.414062 -1.140625 4.632812 -1.394531 4.78125 -1.71875 C 4.9375 -2.039062 5.015625 -2.414062 5.015625 -2.84375 L 5.015625 -3.734375 L 4.890625 -3.765625 C 4.734375 -3.648438 4.539062 -3.554688 4.3125 -3.484375 C 4.09375 -3.410156 3.785156 -3.34375 3.390625 -3.28125 C 2.984375 -3.226562 2.660156 -3.144531 2.421875 -3.03125 C 2.179688 -2.914062 2.007812 -2.769531 1.90625 -2.59375 C 1.800781 -2.425781 1.75 -2.210938 1.75 -1.953125 C 1.75 -1.535156 1.867188 -1.21875 2.109375 -1 C 2.347656 -0.789062 2.679688 -0.6875 3.109375 -0.6875 Z M 3.109375 -0.6875 "/></g></g></g><g fill="#5e17eb" fill-opacity="1"><g transform="translate(121.752589, 64.855873)"><g><path d="M 1.21875 0 L 1.21875 -7 L 2.203125 -7 L 2.203125 -5.90625 L 2.34375 -5.875 C 2.664062 -6.664062 3.273438 -7.0625 4.171875 -7.0625 C 4.648438 -7.0625 5.007812 -6.976562 5.25 -6.8125 L 4.984375 -5.921875 L 4.859375 -5.90625 C 4.597656 -6.03125 4.3125 -6.09375 4 -6.09375 C 3.4375 -6.09375 3.003906 -5.882812 2.703125 -5.46875 C 2.398438 -5.050781 2.25 -4.375 2.25 -3.4375 L 2.25 0 Z M 1.21875 0 "/></g></g></g><g fill="#5e17eb" fill-opacity="1"><g transform="translate(126.975123, 64.855873)"><g><path d="M 3.625 0.140625 C 3.0625 0.140625 2.566406 0.00390625 2.140625 -0.265625 C 1.710938 -0.535156 1.375 -0.941406 1.125 -1.484375 C 0.882812 -2.023438 0.765625 -2.695312 0.765625 -3.5 C 0.765625 -4.300781 0.890625 -4.972656 1.140625 -5.515625 C 1.398438 -6.054688 1.753906 -6.460938 2.203125 -6.734375 C 2.648438 -7.003906 3.164062 -7.140625 3.75 -7.140625 C 4.21875 -7.140625 4.632812 -7.050781 5 -6.875 C 5.375 -6.695312 5.695312 -6.40625 5.96875 -6 L 6.09375 -6.03125 L 6.09375 -9.8125 L 7.140625 -9.8125 L 7.140625 0 L 6.09375 0 L 6.09375 -1.015625 L 5.96875 -1.046875 C 5.738281 -0.703125 5.425781 -0.414062 5.03125 -0.1875 C 4.644531 0.03125 4.175781 0.140625 3.625 0.140625 Z M 3.953125 -0.796875 C 4.609375 -0.796875 5.128906 -1.019531 5.515625 -1.46875 C 5.898438 -1.914062 6.09375 -2.59375 6.09375 -3.5 C 6.09375 -4.414062 5.898438 -5.09375 5.515625 -5.53125 C 5.128906 -5.976562 4.609375 -6.203125 3.953125 -6.203125 C 3.285156 -6.203125 2.769531 -5.984375 2.40625 -5.546875 C 2.039062 -5.117188 1.859375 -4.4375 1.859375 -3.5 C 1.859375 -1.695312 2.554688 -0.796875 3.953125 -0.796875 Z M 3.953125 -0.796875 "/></g></g></g><g fill="#5e17eb" fill-opacity="1"><g transform="translate(135.341452, 64.855873)"><g/></g></g><g fill="#5e17eb" fill-opacity="1"><g transform="translate(138.527018, 64.855873)"><g/></g></g><g fill="#5e17eb" fill-opacity="1"><g transform="translate(141.716451, 64.855873)"><g><path d="M 4.71875 -9.28125 C 5.363281 -9.28125 5.910156 -9.164062 6.359375 -8.9375 C 6.816406 -8.707031 7.164062 -8.378906 7.40625 -7.953125 C 7.644531 -7.523438 7.765625 -7.023438 7.765625 -6.453125 C 7.765625 -5.878906 7.644531 -5.378906 7.40625 -4.953125 C 7.164062 -4.535156 6.816406 -4.207031 6.359375 -3.96875 C 5.910156 -3.738281 5.363281 -3.625 4.71875 -3.625 L 2.5 -3.625 L 2.5 0 L 1.40625 0 L 1.40625 -9.28125 Z M 4.6875 -4.5625 C 5.976562 -4.5625 6.625 -5.191406 6.625 -6.453125 C 6.625 -7.722656 5.976562 -8.359375 4.6875 -8.359375 L 2.5 -8.359375 L 2.5 -4.5625 Z M 4.6875 -4.5625 "/></g></g></g><g fill="#5e17eb" fill-opacity="1"><g transform="translate(149.832635, 64.855873)"><g><path d="M 2.890625 0.140625 C 2.203125 0.140625 1.660156 -0.0390625 1.265625 -0.40625 C 0.878906 -0.769531 0.6875 -1.285156 0.6875 -1.953125 C 0.6875 -2.367188 0.769531 -2.71875 0.9375 -3 C 1.113281 -3.28125 1.378906 -3.507812 1.734375 -3.6875 C 2.097656 -3.875 2.570312 -4.015625 3.15625 -4.109375 C 3.664062 -4.191406 4.050781 -4.285156 4.3125 -4.390625 C 4.570312 -4.503906 4.75 -4.625 4.84375 -4.75 C 4.9375 -4.882812 4.984375 -5.050781 4.984375 -5.25 C 4.984375 -5.5625 4.875 -5.800781 4.65625 -5.96875 C 4.4375 -6.144531 4.085938 -6.234375 3.609375 -6.234375 C 3.148438 -6.234375 2.757812 -6.144531 2.4375 -5.96875 C 2.113281 -5.789062 1.816406 -5.53125 1.546875 -5.1875 L 1.421875 -5.1875 L 0.921875 -5.90625 C 1.210938 -6.28125 1.585938 -6.578125 2.046875 -6.796875 C 2.503906 -7.023438 3.023438 -7.140625 3.609375 -7.140625 C 4.429688 -7.140625 5.035156 -6.957031 5.421875 -6.59375 C 5.816406 -6.226562 6.015625 -5.726562 6.015625 -5.09375 L 6.015625 -1.375 C 6.015625 -0.988281 6.179688 -0.796875 6.515625 -0.796875 C 6.617188 -0.796875 6.722656 -0.8125 6.828125 -0.84375 L 6.921875 -0.828125 L 7.046875 -0.109375 C 6.960938 -0.0546875 6.859375 -0.0195312 6.734375 0 C 6.609375 0.03125 6.484375 0.046875 6.359375 0.046875 C 5.972656 0.046875 5.679688 -0.0351562 5.484375 -0.203125 C 5.285156 -0.367188 5.160156 -0.617188 5.109375 -0.953125 L 4.96875 -0.96875 C 4.769531 -0.59375 4.5 -0.3125 4.15625 -0.125 C 3.820312 0.0507812 3.398438 0.140625 2.890625 0.140625 Z M 3.109375 -0.6875 C 3.503906 -0.6875 3.84375 -0.773438 4.125 -0.953125 C 4.414062 -1.140625 4.632812 -1.394531 4.78125 -1.71875 C 4.9375 -2.039062 5.015625 -2.414062 5.015625 -2.84375 L 5.015625 -3.734375 L 4.890625 -3.765625 C 4.734375 -3.648438 4.539062 -3.554688 4.3125 -3.484375 C 4.09375 -3.410156 3.785156 -3.34375 3.390625 -3.28125 C 2.984375 -3.226562 2.660156 -3.144531 2.421875 -3.03125 C 2.179688 -2.914062 2.007812 -2.769531 1.90625 -2.59375 C 1.800781 -2.425781 1.75 -2.210938 1.75 -1.953125 C 1.75 -1.535156 1.867188 -1.21875 2.109375 -1 C 2.347656 -0.789062 2.679688 -0.6875 3.109375 -0.6875 Z M 3.109375 -0.6875 "/></g></g></g><g fill="#5e17eb" fill-opacity="1"><g transform="translate(157.07314, 64.855873)"><g><path d="M 1.21875 0 L 1.21875 -7 L 2.203125 -7 L 2.203125 -5.90625 L 2.34375 -5.875 C 2.570312 -6.28125 2.863281 -6.59375 3.21875 -6.8125 C 3.582031 -7.03125 4.023438 -7.140625 4.546875 -7.140625 C 5.390625 -7.140625 6 -6.921875 6.375 -6.484375 C 6.757812 -6.054688 6.953125 -5.394531 6.953125 -4.5 L 6.953125 0 L 5.921875 0 L 5.921875 -4.484375 C 5.921875 -4.898438 5.863281 -5.238281 5.75 -5.5 C 5.644531 -5.757812 5.476562 -5.945312 5.25 -6.0625 C 5.019531 -6.175781 4.722656 -6.234375 4.359375 -6.234375 C 3.734375 -6.234375 3.222656 -6.023438 2.828125 -5.609375 C 2.441406 -5.191406 2.25 -4.519531 2.25 -3.59375 L 2.25 0 Z M 1.21875 0 "/></g></g></g><g fill="#5e17eb" fill-opacity="1"><g transform="translate(165.13224, 64.855873)"><g><path d="M 6.671875 -3.265625 L 1.859375 -3.265625 C 1.890625 -2.410156 2.09375 -1.785156 2.46875 -1.390625 C 2.851562 -0.992188 3.375 -0.796875 4.03125 -0.796875 C 4.53125 -0.796875 4.929688 -0.882812 5.234375 -1.0625 C 5.535156 -1.238281 5.773438 -1.515625 5.953125 -1.890625 L 6.09375 -1.890625 L 6.765625 -1.5 C 6.554688 -0.988281 6.226562 -0.585938 5.78125 -0.296875 C 5.332031 -0.00390625 4.75 0.140625 4.03125 0.140625 C 3.351562 0.140625 2.769531 0.00390625 2.28125 -0.265625 C 1.800781 -0.535156 1.425781 -0.941406 1.15625 -1.484375 C 0.894531 -2.023438 0.765625 -2.695312 0.765625 -3.5 C 0.765625 -4.289062 0.898438 -4.957031 1.171875 -5.5 C 1.453125 -6.050781 1.832031 -6.460938 2.3125 -6.734375 C 2.800781 -7.003906 3.351562 -7.140625 3.96875 -7.140625 C 4.863281 -7.140625 5.5625 -6.882812 6.0625 -6.375 C 6.570312 -5.875 6.828125 -5.125 6.828125 -4.125 C 6.828125 -3.738281 6.820312 -3.476562 6.8125 -3.34375 Z M 5.8125 -4.125 C 5.789062 -4.875 5.625 -5.414062 5.3125 -5.75 C 5 -6.09375 4.550781 -6.265625 3.96875 -6.265625 C 3.351562 -6.265625 2.867188 -6.09375 2.515625 -5.75 C 2.171875 -5.40625 1.960938 -4.863281 1.890625 -4.125 Z M 5.8125 -4.125 "/></g></g></g><g fill="#5e17eb" fill-opacity="1"><g transform="translate(172.594841, 64.855873)"><g><path d="M 2.78125 0.140625 C 2.289062 0.140625 1.898438 0 1.609375 -0.28125 C 1.328125 -0.570312 1.1875 -0.992188 1.1875 -1.546875 L 1.1875 -9.8125 L 2.234375 -9.8125 L 2.234375 -1.625 C 2.234375 -1.332031 2.285156 -1.117188 2.390625 -0.984375 C 2.503906 -0.859375 2.679688 -0.796875 2.921875 -0.796875 C 3.066406 -0.796875 3.210938 -0.816406 3.359375 -0.859375 L 3.453125 -0.84375 L 3.5625 -0.03125 C 3.488281 0.0195312 3.378906 0.0625 3.234375 0.09375 C 3.097656 0.125 2.945312 0.140625 2.78125 0.140625 Z M 2.78125 0.140625 "/></g></g></g></svg>